<svg width="314" height="104" viewBox="0 0 314 104" fill="none" xmlns="http://www.w3.org/2000/svg">
<g filter="url(#filter0_d_302_1214)">
<path d="M90.4833 51.9523C90.4833 75.834 71.1233 95.194 47.2416 95.194C23.3599 95.194 4 75.834 4 51.9523C4 28.0706 23.3599 8.71069 47.2416 8.71069C71.1233 8.71069 90.4833 28.0706 90.4833 51.9523Z" fill="#A3D7E3"/>
<path d="M74.1647 51.9511C74.1647 66.8209 62.1104 78.8752 47.2407 78.8752C32.371 78.8752 20.3167 66.8209 20.3167 51.9511C20.3167 37.0814 32.371 25.0271 47.2407 25.0271C62.1104 25.0271 74.1647 37.0814 74.1647 51.9511Z" fill="#254788"/>
<path d="M37.7343 52.353C37.7343 52.353 42.2489 50.6506 45.3492 52.7447C45.6048 52.9187 45.8278 53.0873 46.0291 53.2505C46.3158 53.4957 46.5482 53.7979 46.7118 54.1378C46.8754 54.4777 46.9665 54.8479 46.9793 55.2249C46.9921 55.6019 46.9263 55.9775 46.7861 56.3277C46.6459 56.6779 46.4345 56.9951 46.1651 57.2592L45.4362 57.9663C45.3268 58.0633 45.2411 58.1843 45.186 58.3198C45.0446 58.706 45.0446 59.4784 46.5295 60.4955C47.3345 61.0394 47.8839 61.3712 48.2592 61.5834C48.2943 61.6024 48.3218 61.633 48.337 61.67C48.3522 61.7069 48.3543 61.748 48.3428 61.7863C48.3313 61.8246 48.307 61.8577 48.2739 61.8802C48.2409 61.9027 48.2011 61.9131 48.1613 61.9097L35.8904 61.4691C34.5276 61.4301 33.1872 61.1117 31.9524 60.5336C30.9244 60.0332 29.8964 59.3098 29.5701 58.3579C28.8521 56.1822 29.5701 55.3446 29.5701 55.3446C29.5701 55.3446 30.7504 53.6476 34.7428 56.8513C34.7428 56.8513 28.2647 49.3887 34.6122 45.7227C40.9598 42.0566 49.6679 44.5423 49.6679 44.5423L54.2804 45.9076C54.299 45.9122 54.3186 45.9102 54.3359 45.9017C54.3531 45.8933 54.3668 45.8791 54.3746 45.8616C54.3824 45.844 54.3838 45.8243 54.3785 45.8059C54.3732 45.7874 54.3616 45.7714 54.3456 45.7607C52.8716 44.885 49.1838 42.4537 47.6663 39.2337C45.7408 35.176 53.0729 40.7403 53.0729 40.7403L56.2874 43.3294C56.3201 43.3294 56.3636 43.3294 56.3473 43.2859L53.2904 36.8187C53.0729 36.3695 52.9612 35.8764 52.9641 35.3773C52.9641 34.7463 53.1925 34.0338 54.0519 34.0012C54.6774 33.974 55.4008 34.5451 56.0427 35.2848C57.0918 36.4849 57.8626 37.9021 58.2999 39.4349C58.6644 40.686 59.0179 42.3286 59.2192 43.1662C59.502 44.3085 60.8509 45.777 62.0421 46.9737C62.7265 47.6703 63.4531 48.3243 64.2178 48.9318C65.224 49.7422 66.9048 51.3196 66.9374 52.8317C66.947 53.2471 66.8613 53.6592 66.6869 54.0364C66.5125 54.4135 66.2539 54.7457 65.9311 55.0074C65.3373 55.5218 64.6089 55.8558 63.8316 55.9701L61.0413 56.427C60.4772 56.5117 59.9365 56.7117 59.453 57.0144C58.8275 57.4115 58.2727 58.0424 58.8819 58.8692C59.6396 59.8413 60.5733 60.6623 61.6342 61.2896" stroke="#F2EAD6" stroke-width="0.676618" stroke-miterlimit="10"/>
<path d="M21.7899 31.5347C21.0415 32.472 20.0879 32.4834 19.203 31.7769C18.3115 31.0651 18.1115 30.1326 18.8599 29.1953C19.5141 28.3759 20.2594 28.3162 21.0038 28.6745L22.0767 27.3307C20.4567 26.4022 18.9039 27.2447 17.9357 28.4573C16.8785 29.7814 16.3891 31.6983 18.1458 33.1009C19.8959 34.4983 21.657 33.5967 22.7141 32.2726C23.6824 31.06 24.1667 29.3644 22.9026 27.9902L21.8297 29.3339C22.3373 29.9753 22.4441 30.7153 21.7899 31.5347Z" fill="#254788"/>
<path d="M30.6134 24.8068L32.1353 23.7933L29.8048 22.7755C30.2681 22.1243 30.3126 21.4195 29.8105 20.6655C29.1457 19.6671 27.9802 19.506 26.6259 20.408L23.4214 22.542L26.6759 27.429L28.0652 26.5038L27.0051 24.912L28.562 23.8752L30.6134 24.8068ZM25.4709 22.6081L27.2442 21.4272C27.8864 20.9995 28.2468 21.3742 28.4003 21.6046C28.5537 21.835 28.7582 22.3236 28.1229 22.7467L26.3496 23.9276L25.4709 22.6081Z" fill="#254788"/>
<path d="M37.5597 15.3089L38.5149 18.5864C38.8505 19.7379 38.2845 20.1038 37.5275 20.3245C36.7625 20.5474 36.0965 20.5406 35.7609 19.389L34.8056 16.1116L33.2031 16.5786L34.1584 19.8561C34.7921 22.0303 36.2559 21.9269 37.8584 21.4599C39.4529 20.9952 40.7511 20.2935 40.1174 18.1193L39.1622 14.8418L37.5597 15.3089Z" fill="#254788"/>
<path d="M49.7598 18.6L45.8763 18.5816L45.8822 17.3486L49.4469 17.3655L49.4526 16.1745L45.8878 16.1575L45.8929 15.0923L49.7009 15.1104L49.7066 13.9193L44.2294 13.8933L44.2015 19.7647L49.7542 19.7911L49.7598 18.6Z" fill="#254788"/>
<path d="M58.4966 20.3771L54.8387 19.3183L56.14 14.8225L54.5366 14.3584L52.9041 19.9984L58.1654 21.5212L58.4966 20.3771Z" fill="#254788"/>
<path d="M69.9767 21.1545L64.7905 17.915L64.1595 18.9252L66.0447 20.1028L63.5652 24.0724L64.9809 24.9567L67.4604 20.9871L69.3457 22.1647L69.9767 21.1545Z" fill="#254788"/>
<path d="M76.4782 27.4377L73.4992 27.8371L74.2717 24.9324L73.0299 23.5225L71.981 28.0677L70.4199 29.4426L71.5232 30.6952L73.0842 29.3203L77.7255 28.8539L76.4782 27.4377Z" fill="#254788"/>
<path d="M62.7197 85.3295L63.2773 86.382L68.1172 83.8176L65.3682 78.6294L63.8933 79.4109L64.9536 81.4121L61.8036 83.0811L62.3613 84.1335L65.5113 82.4645L66.0846 83.5466L62.7197 85.3295Z" fill="#254788"/>
<path d="M53.5547 83.247L51.7617 83.6056L53.5301 85.4331C52.854 85.8592 52.5447 86.4942 52.7224 87.3825C52.9576 88.5586 53.9742 89.1508 55.5698 88.8317L59.3451 88.0767L58.1936 82.3192L56.5569 82.6465L56.9319 84.5218L55.0977 84.8887L53.5547 83.247ZM57.4747 87.2361L55.3856 87.6539C54.6289 87.8052 54.4381 87.3216 54.3838 87.0502C54.3295 86.7788 54.3262 86.2491 55.0747 86.0994L57.1638 85.6816L57.4747 87.2361Z" fill="#254788"/>
<path d="M43.0684 84.6433L46.935 85.0065L46.8196 86.2341L43.2704 85.9007L43.159 87.0865L46.7082 87.42L46.6086 88.4805L42.8172 88.1244L42.7058 89.3102L48.1591 89.8225L48.7082 83.9768L43.1798 83.4574L43.0684 84.6433Z" fill="#254788"/>
<path d="M34.4487 82.1192L38.0734 83.5133L37.6308 84.6641L34.3036 83.3844L33.876 84.4961L37.2032 85.7758L36.8208 86.7701L33.2666 85.4031L32.839 86.5147L37.9512 88.481L40.0589 83.0008L34.8763 81.0075L34.4487 82.1192Z" fill="#254788"/>
<circle cx="156.57" cy="51.4073" r="43.4073" fill="#D7ADF9"/>
<circle cx="156.57" cy="51.4083" r="27.0272" fill="#254788"/>
<path d="M146.963 15.3997L146.405 13.9746L139.851 16.5445L142.606 23.5696L144.603 22.7865L143.541 20.0768L147.806 18.4042L147.247 16.9791L142.982 18.6517L142.407 17.1864L146.963 15.3997Z" fill="#254788"/>
<path d="M156.312 20.2253L158.557 20.0401L154.467 12.8059L151.931 13.0151L149.071 20.8226L151.316 20.6374L151.783 19.2144L155.629 18.8971L156.312 20.2253ZM152.302 17.6356L153.33 14.5005L154.859 17.4247L152.302 17.6356Z" fill="#254788"/>
<path d="M160.766 12.9864L159.751 20.4638L161.877 20.7524L162.892 13.275L160.766 12.9864Z" fill="#254788"/>
<path d="M168.653 22.7832L170.858 23.596L170.15 20.4053C171.177 20.3933 171.943 19.9058 172.345 18.8134C172.878 17.367 172.163 16.0348 170.201 15.3115L165.558 13.6001L162.948 20.6803L164.961 21.4223L165.811 19.1161L168.067 19.9476L168.653 22.7832ZM167.042 15.7783L169.611 16.7254C170.541 17.0684 170.425 17.7264 170.302 18.0602C170.179 18.394 169.827 18.9763 168.906 18.637L166.337 17.69L167.042 15.7783Z" fill="#254788"/>
<path d="M175.083 84.7905L181.531 80.2986L180.656 79.0425L178.312 80.6754L174.874 75.7397L173.113 76.9658L176.552 81.9016L174.208 83.5344L175.083 84.7905Z" fill="#254788"/>
<path d="M163.987 81.1511L161.755 81.885L164.293 83.9443C163.496 84.5921 163.199 85.45 163.563 86.556C164.044 88.0204 165.432 88.6193 167.419 87.9662L172.12 86.4209L169.763 79.2524L167.725 79.9223L168.493 82.2572L166.209 83.008L163.987 81.1511ZM169.604 85.6367L167.002 86.4918C166.06 86.8015 165.742 86.2139 165.631 85.8759C165.52 85.538 165.434 84.8627 166.366 84.5563L168.967 83.7012L169.604 85.6367Z" fill="#254788"/>
<path d="M154.318 82.117L152.065 82.1333L155.601 89.6539L158.145 89.6355L161.583 82.0644L159.33 82.0807L158.758 83.4647L154.899 83.4927L154.318 82.117ZM158.123 85.0001L156.862 88.0493L155.557 85.0187L158.123 85.0001Z" fill="#254788"/>
<path d="M145.936 88.1839L149.409 89.2487L151.621 82.0341L148.148 80.9693C145.901 80.2805 143.426 80.1531 142.497 83.1832C141.565 86.2236 143.689 87.4951 145.936 88.1839ZM147.864 82.4834L149.111 82.8657L147.797 87.1532L146.55 86.7709C145.096 86.3254 144.017 85.6901 144.589 83.8246C145.158 81.9695 146.411 82.0379 147.864 82.4834Z" fill="#254788"/>
<path d="M136.275 76.6254L140.426 79.3968L139.546 80.7147L135.736 78.1708L134.886 79.4439L138.696 81.9878L137.936 83.1264L133.866 80.4089L133.016 81.682L138.87 85.5906L143.06 79.3148L137.125 75.3523L136.275 76.6254Z" fill="#254788"/>
<path d="M140.379 52.2425C140.379 52.2425 137.282 54.9862 139.607 56.8164C141.932 58.6466 143.756 55.4776 143.756 55.4776C143.756 55.4776 145.516 53.4395 143.756 51.8896C141.995 50.3398 140.379 52.2425 140.379 52.2425Z" stroke="white" stroke-width="1.24251" stroke-miterlimit="10"/>
<path d="M143.755 55.4799C143.755 55.4799 141.011 58.1543 143.194 60.205C145.377 62.2558 148.049 57.8393 148.049 57.8393C148.049 57.8393 150.184 55.1019 147.768 53.6623C145.966 52.5787 143.755 55.4799 143.755 55.4799Z" stroke="white" stroke-width="1.24251" stroke-miterlimit="10"/>
<path d="M147.567 58.5891C147.567 58.5891 144.824 61.2604 147.007 63.3143C149.19 65.3681 151.858 60.9485 151.858 60.9485C151.858 60.9485 153.997 58.2111 151.577 56.7715C149.779 55.6847 147.567 58.5891 147.567 58.5891Z" stroke="white" stroke-width="1.24251" stroke-miterlimit="10"/>
<path d="M152.103 60.8607C152.103 60.8607 149.007 63.6044 151.328 65.4315C153.65 67.2586 155.48 64.0959 155.48 64.0959C155.48 64.0959 157.238 62.0546 155.48 60.5079C153.722 58.9612 152.103 60.8607 152.103 60.8607Z" stroke="white" stroke-width="1.24251" stroke-miterlimit="10"/>
<path d="M155.991 63.2708C155.991 63.2708 159.169 66.6351 161.012 64.66C161.324 64.348 161.545 63.9563 161.65 63.5274C161.755 63.0985 161.74 62.6491 161.607 62.2281C161.423 61.6347 161.067 61.1094 160.584 60.7192L158.857 59.2859" stroke="white" stroke-width="1.24251" stroke-miterlimit="10"/>
<path d="M161.323 61.5847C161.323 61.5847 164.143 63.544 165.633 61.3894C166.972 59.4521 164.751 57.9243 164.751 57.9243L161.323 55.4231" stroke="white" stroke-width="1.24251" stroke-miterlimit="10"/>
<path d="M165.132 58.2548C165.132 58.2548 167.819 60.4378 169.265 58.6738C169.489 58.4201 169.659 58.1247 169.767 57.8045C169.875 57.4844 169.919 57.146 169.895 56.8089C169.858 56.4147 169.732 56.0339 169.528 55.6948C169.323 55.3557 169.045 55.0668 168.714 54.8496L164.08 51.6995" stroke="white" stroke-width="1.24251" stroke-miterlimit="10"/>
<path d="M173.12 52.1991L176.522 49.5246C176.717 49.3727 176.845 49.1504 176.878 48.9054C176.911 48.6604 176.847 48.4123 176.699 48.2142L171.369 41.0099C171.224 40.8142 171.009 40.6821 170.769 40.641C170.529 40.5999 170.282 40.6531 170.08 40.7894L169.419 41.2367C169.419 41.2367 167.022 43.2811 163.005 41.1296C158.989 38.9781 156.642 40.6351 156.642 40.6351L150.481 44.831C150.481 44.831 148.937 46.1351 150.481 48.1795C151.69 49.7829 153.379 48.7434 153.379 48.7434C153.379 48.7434 155.71 47.2282 157.893 45.4642C160.076 43.7001 162.653 45.042 162.653 45.042L173.12 52.1991ZM173.12 52.1991C173.12 52.1991 175.376 53.919 173.65 55.9351C172.219 57.6046 169.028 55.0909 169.028 55.0909" stroke="white" stroke-width="1.24251" stroke-miterlimit="10"/>
<path d="M140.379 52.2414L136.743 49.8599C136.633 49.7875 136.539 49.6934 136.466 49.5834C136.393 49.4734 136.343 49.3497 136.319 49.2199C136.295 49.09 136.298 48.9567 136.327 48.8279C136.356 48.6992 136.411 48.5776 136.488 48.4707L141.844 41.1247C141.98 40.9364 142.184 40.8083 142.413 40.7672C142.642 40.7261 142.878 40.7752 143.072 40.9042L143.286 41.0491C144.691 42.0104 146.413 42.3929 148.093 42.117C148.948 41.971 149.759 41.634 150.465 41.131C153.093 39.2409 155.991 40.6427 155.991 40.6427L156.353 40.8128" stroke="white" stroke-width="1.24251" stroke-miterlimit="10"/>
<path d="M310 51.052C310 75.3812 290.277 95.1039 265.948 95.1039C241.619 95.1039 221.896 75.3812 221.896 51.052C221.896 26.7227 241.619 7 265.948 7C290.277 7 310 26.7227 310 51.052Z" fill="#65B68B"/>
<path d="M293.669 50.8369C293.669 66.0279 281.354 78.3425 266.163 78.3425C250.972 78.3425 238.657 66.0279 238.657 50.8369C238.657 35.646 250.972 23.3313 266.163 23.3313C281.354 23.3313 293.669 35.646 293.669 50.8369Z" fill="#254788"/>
<path d="M245.358 18.5427L246.594 25.087L241.043 21.4072L239.107 22.6919L246.411 27.183L248.596 25.7323L247.294 17.258L245.358 18.5427Z" fill="#254788"/>
<path d="M258.711 19.6908L253.787 21.1872L253.311 19.6238L257.831 18.2502L257.372 16.7401L252.852 18.1137L252.442 16.763L257.27 15.2957L256.811 13.7855L249.867 15.896L252.129 23.3406L259.17 21.201L258.711 19.6908Z" fill="#254788"/>
<path d="M269.869 16.1696L265.157 16.143L265.147 17.8325L267.592 17.8463C267.366 18.6565 266.651 19.2638 265.339 19.2564C263.638 19.2468 262.666 18.2965 262.674 16.7626C262.683 15.2287 263.522 14.2775 265.178 14.2869C266.29 14.2931 267.099 14.7534 267.417 15.4888L269.695 15.5017C269.195 13.587 267.21 12.731 265.187 12.7196C262.942 12.707 260.435 13.771 260.418 16.7499C260.401 19.7177 262.84 20.8096 265.33 20.8236C268.087 20.8392 270.196 19.3949 269.869 16.1696Z" fill="#254788"/>
<path d="M276.495 22.647L278.703 23.3685L277.707 14.8575L275.214 14.0428L269.374 20.3203L271.582 21.0418L272.595 19.8758L276.377 21.1116L276.495 22.647ZM273.719 18.5826L275.949 16.0138L276.233 19.4042L273.719 18.5826Z" fill="#254788"/>
<path d="M288.805 20.6868L285.766 24.8811L285.61 18.3714L283.693 16.9822L279.128 23.2826L280.919 24.5806L283.958 20.3863L284.114 26.8959L286.031 28.2852L290.597 21.9847L288.805 20.6868Z" fill="#254788"/>
<path d="M287.071 82.9086L285.515 76.433L291.24 79.8352L293.11 78.4568L285.595 74.3306L283.483 75.8871L285.201 84.287L287.071 82.9086Z" fill="#254788"/>
<path d="M273.68 82.42L278.524 80.683L279.076 82.2211L274.629 83.8155L275.162 85.3013L279.609 83.7069L280.085 85.0357L275.335 86.7389L275.868 88.2247L282.7 85.7749L280.074 78.4507L273.147 80.9342L273.68 82.42Z" fill="#254788"/>
<path d="M262.706 86.4867L267.415 86.2813L267.341 84.5933L264.898 84.6999C265.085 83.8796 265.769 83.2378 267.079 83.1806C268.778 83.1065 269.797 84.0078 269.864 85.5402C269.93 87.0727 269.139 88.064 267.485 88.1362C266.374 88.1847 265.544 87.7648 265.19 87.0459L262.913 87.1452C263.507 89.033 265.532 89.7902 267.553 89.702C269.796 89.6041 272.248 88.418 272.118 85.4419C271.988 82.4769 269.498 81.5063 267.011 81.6149C264.257 81.735 262.222 83.2813 262.706 86.4867Z" fill="#254788"/>
<path d="M255.77 80.3429L253.529 79.731L254.943 88.1827L257.473 88.8737L262.997 82.3163L260.756 81.7044L259.802 82.9188L255.963 81.8706L255.77 80.3429ZM258.743 84.2658L256.641 86.9412L256.191 83.5689L258.743 84.2658Z" fill="#254788"/>
<path d="M243.57 82.907L246.399 78.5682L246.875 85.0623L248.859 86.3555L253.109 79.8379L251.256 78.6297L248.426 82.9686L247.95 76.4744L245.967 75.1812L241.717 81.6988L243.57 82.907Z" fill="#254788"/>
<path fill-rule="evenodd" clip-rule="evenodd" d="M255.658 48.0119C258.424 44.4835 262.493 41.0721 267.556 41.9519C272.543 42.8184 274.671 45.1902 275.524 47.3956C275.946 48.4876 276.049 49.5222 276.048 50.2824C276.047 50.6629 276.02 50.9763 275.993 51.1959C275.979 51.3058 275.965 51.3924 275.955 51.4524C275.952 51.4684 275.95 51.4826 275.947 51.4947L275.959 51.4955C275.742 55.043 274.805 57.2305 273.465 58.4798C272.12 59.734 270.42 59.9951 268.792 59.8079C267.166 59.621 265.579 58.9852 264.407 58.4035C263.819 58.1117 263.331 57.8315 262.99 57.6238C262.819 57.52 262.685 57.4342 262.593 57.374C262.547 57.344 262.512 57.3203 262.487 57.304L262.46 57.2851L262.452 57.2801L262.451 57.2793C260.014 55.6168 257.322 55.2161 255.228 55.2353C254.182 55.2449 253.29 55.3592 252.66 55.471C252.345 55.5268 252.097 55.5819 251.927 55.6228C251.843 55.6433 251.778 55.6602 251.735 55.6718C251.714 55.6776 251.697 55.6821 251.687 55.685L251.676 55.6883L251.673 55.689L251.121 55.8528L251.341 55.3152L251.595 55.4219C251.341 55.3152 251.341 55.3154 251.341 55.3152L251.342 55.3142L251.342 55.3119L251.346 55.3032L251.36 55.27C251.372 55.241 251.39 55.1984 251.414 55.1431C251.462 55.0326 251.533 54.8714 251.627 54.6673C251.815 54.2592 252.094 53.6792 252.46 52.9889C253.191 51.6092 254.269 49.7848 255.658 48.0119ZM252.073 55.0187C252.214 54.9884 252.378 54.9554 252.565 54.9223C253.219 54.8064 254.141 54.6882 255.223 54.6783C257.384 54.6585 260.198 55.0709 262.759 56.8174L262.761 56.8186L262.762 56.8197L262.768 56.8237L262.793 56.8405C262.815 56.8554 262.848 56.8776 262.892 56.9062C262.979 56.9634 263.108 57.046 263.274 57.1465C263.604 57.3476 264.078 57.6199 264.649 57.9034C265.795 58.4723 267.317 59.0779 268.854 59.2545C270.387 59.4307 271.904 59.1773 273.092 58.0701C274.285 56.9581 275.197 54.9374 275.41 51.4611L275.592 51.4725C275.399 51.4293 275.399 51.4295 275.399 51.4296L275.4 51.4266L275.402 51.4133C275.405 51.4009 275.408 51.3816 275.413 51.3558C275.422 51.3043 275.434 51.2268 275.446 51.1267C275.471 50.9263 275.497 50.6359 275.497 50.2812C275.499 49.5708 275.402 48.6092 275.011 47.5986C274.237 45.5986 272.286 43.3389 267.463 42.5009C262.717 41.6762 258.829 44.8626 256.09 48.358C254.727 50.0971 253.666 51.8912 252.945 53.2519C252.585 53.9319 252.311 54.5025 252.126 54.9026C252.108 54.9431 252.09 54.9818 252.073 55.0187Z" fill="#F2EAD6"/>
<path fill-rule="evenodd" clip-rule="evenodd" d="M260.685 50.1169L260.63 49.8463C260.575 49.5758 260.576 49.5758 260.576 49.5757L260.577 49.5756L260.579 49.5751L260.59 49.5731L260.628 49.5657C260.662 49.5594 260.712 49.5503 260.777 49.5389C260.908 49.5163 261.098 49.4849 261.342 49.4493C261.829 49.3781 262.528 49.2902 263.38 49.2229C265.083 49.0882 267.401 49.035 269.859 49.3633C274.767 50.0188 280.298 52.2098 282.494 58.3894L281.97 58.573C279.875 52.6803 274.605 50.5539 269.785 49.9101C267.378 49.5886 265.101 49.6403 263.424 49.7729C262.586 49.8391 261.899 49.9255 261.423 49.9951C261.184 50.03 260.999 50.0606 260.873 50.0824C260.811 50.0933 260.763 50.102 260.731 50.108L260.695 50.1147L260.687 50.1164L260.685 50.1168L260.685 50.1169Z" fill="#F2EAD6"/>
</g>
<defs>
<filter id="filter0_d_302_1214" x="0" y="7" width="314" height="96.1941" filterUnits="userSpaceOnUse" color-interpolation-filters="sRGB">
<feFlood flood-opacity="0" result="BackgroundImageFix"/>
<feColorMatrix in="SourceAlpha" type="matrix" values="0 0 0 0 0 0 0 0 0 0 0 0 0 0 0 0 0 0 127 0" result="hardAlpha"/>
<feOffset dy="4"/>
<feGaussianBlur stdDeviation="2"/>
<feComposite in2="hardAlpha" operator="out"/>
<feColorMatrix type="matrix" values="0 0 0 0 0 0 0 0 0 0 0 0 0 0 0 0 0 0 0.1 0"/>
<feBlend mode="normal" in2="BackgroundImageFix" result="effect1_dropShadow_302_1214"/>
<feBlend mode="normal" in="SourceGraphic" in2="effect1_dropShadow_302_1214" result="shape"/>
</filter>
</defs>
</svg>
