<svg width="141" height="124" viewBox="0 0 141 124" fill="none" xmlns="http://www.w3.org/2000/svg">
<path d="M94.3743 16.9178L98.605 29.7656L98.6068 29.7708C99.0614 31.1415 100.547 31.8819 101.928 31.4275C103.31 30.9709 104.065 29.4914 103.611 28.1167L101.799 22.6128C109.533 28.6627 115.391 36.8525 118.507 46.2446C127.241 72.577 112.776 101.155 86.2622 109.95C78.1295 112.648 69.4122 113.262 61.0552 111.721C59.627 111.456 58.248 112.397 57.9781 113.819C57.8917 114.271 57.9291 114.716 58.0641 115.124C58.3544 115.999 59.1014 116.691 60.0773 116.872C69.3079 118.57 78.9332 117.895 87.9119 114.917C117.185 105.207 133.155 73.6556 123.511 44.584C119.783 33.3446 112.517 23.6441 102.884 16.8448L110.675 14.2432C112.055 13.7836 112.802 12.3007 112.348 10.93L112.346 10.9248C111.889 9.55292 110.397 8.81664 109.018 9.27624L96.0498 13.6067C94.6708 14.068 93.922 15.5474 94.3743 16.917L94.3743 16.9178Z" fill="white"/>
<path d="M17.5063 79.3195C21.235 90.5602 28.4349 100.236 38.0177 107.042L30.3202 109.61C28.9425 110.069 28.1966 111.553 28.6517 112.925L28.6534 112.93C29.1103 114.301 30.6012 115.041 31.979 114.582L44.9578 110.25C46.3338 109.791 47.0814 108.307 46.6263 106.935L42.3632 94.0834C41.9075 92.7097 40.4194 91.9673 39.0394 92.4251C37.6592 92.8829 36.9093 94.3657 37.3656 95.7411L39.2211 101.335C31.4867 95.2732 25.6321 87.0922 22.5041 77.6622C13.7614 51.306 28.1917 22.7181 54.6699 13.9349C62.8302 11.2281 71.5755 10.6298 79.9633 12.2006C81.3906 12.4683 82.7686 11.5319 83.0413 10.1091C83.3146 8.6823 82.3767 7.31262 80.9488 7.0489C71.6859 5.31216 62.0294 5.97403 53.0202 8.96246C23.786 18.6598 7.85505 50.2202 17.5078 79.32L17.5063 79.3195Z" fill="white"/>
<circle cx="69.5" cy="62.5" r="31.5" fill="#0068FF"/>
<path d="M94.67 82.8815C93.8681 82.1218 92.6022 82.156 91.8426 82.9578C91.0829 83.7597 91.1171 85.0255 91.9189 85.7852L94.67 82.8815ZM120.066 112.452C120.868 113.212 122.134 113.177 122.894 112.376C123.653 111.574 123.619 110.308 122.817 109.548L120.066 112.452ZM69.8384 91.2222C52.7036 91.2222 39 78.0883 39 62.1111H35C35 80.4983 50.7009 95.2222 69.8384 95.2222V91.2222ZM100.677 62.1111C100.677 78.0883 86.9732 91.2222 69.8384 91.2222V95.2222C88.976 95.2222 104.677 80.4983 104.677 62.1111H100.677ZM69.8384 33C86.9732 33 100.677 46.1339 100.677 62.1111H104.677C104.677 43.7239 88.976 29 69.8384 29V33ZM69.8384 29C50.7009 29 35 43.7239 35 62.1111H39C39 46.1339 52.7036 33 69.8384 33V29ZM91.9189 85.7852L120.066 112.452L122.817 109.548L94.67 82.8815L91.9189 85.7852Z" fill="#22488B"/>
</svg>
