<svg width="149" height="172" viewBox="0 0 149 172" fill="none" xmlns="http://www.w3.org/2000/svg">
<path d="M72.0457 15.6395C70.4372 14.8586 68.7236 13.8162 67.9466 12.5245C66.7834 13.0023 65.585 13.4428 64.4073 13.9087C61.6951 14.9815 58.3766 14.8965 55.4502 16.0541C52.7261 17.1317 49.6002 18.1377 47.1565 19.5523C44.5519 21.0599 41.4121 22.0988 38.7993 23.6192C34.4915 26.1258 30.2123 28.7693 25.7245 31.1518C21.911 33.1765 11.8207 38.0367 12.7402 40.7764C14.2883 45.3888 19.957 45.4849 27.7651 45.6173L28.0518 45.6222C32.2317 45.6934 36.0126 45.6724 38.4067 47.3346C40.523 48.8037 43.1503 50.0059 44.2715 52.0345C45.43 54.1305 46.0638 56.4845 46.9394 58.6979C47.2535 59.4919 50.2249 62.7322 49.1213 63.5657C45.3308 66.4285 39.5489 69.8787 37.8534 72.9928C37.1515 74.282 38.7788 76.5655 39.485 77.4414C40.9917 79.3099 44.1288 80.5253 47.2511 81.3582C52.1745 82.6715 58.0571 84.0873 61.4065 86.5215C63.7645 88.2352 69.0122 88.4654 68.3659 91.7203C68.024 93.4422 65.1169 95.9077 62.8533 97.5507C57.4396 101.48 52.3273 105.606 47.5067 109.709C40.8635 115.364 36.8883 120.78 41.1504 124.586C42.3881 125.692 44.739 125.534 46.8824 125.953C49.4556 126.456 52.6862 126.872 54.4224 128.002C57.9908 130.326 56.498 134.803 53.5725 138.977C50.8604 142.846 47.9995 146.149 46.6845 149.918C45.5732 153.102 47.0322 155.104 48.7307 157.277C52.0383 161.51 60.7863 161.411 69.9734 160.429C78.4098 159.527 89.5303 157.603 98.4285 154.189C102.827 152.502 107.481 150.807 111.768 148.866C113.153 148.239 115.196 147.257 116.081 146.321C117.223 145.114 115.706 143.75 115.06 143.091C113.857 141.866 112.895 140.858 112.294 139.34C110.655 135.196 112.501 131.629 119.406 126.618C124.542 122.89 137.234 116.358 135.606 112.242C133.819 107.724 132.878 102.494 127.976 99.4344C125.994 98.1968 124.021 97.535 123.283 95.6691C122.192 92.9123 122.029 89.8453 122.568 86.5713C122.954 84.2235 124.99 81.5558 125.84 79.1268C126.674 76.7415 125.473 74.9584 124.727 73.0749C122.639 67.7962 115.296 66.6436 109.201 63.717C104.639 61.5264 103.902 57.5435 103.263 53.486C102.879 51.0396 102.812 48.1741 103.415 45.4433C103.932 43.1001 102.954 41.362 102.192 39.4353C100.606 35.4257 98.6319 32.0421 95.4117 28.7764C92.2013 25.5207 87.7466 23.0409 83.1684 20.5892C79.7152 18.7399 75.6257 17.3776 72.0457 15.6395Z" fill="white"/>
<path d="M117.217 35.4382C116.94 33.5287 111.661 33.5904 110.233 33.8689C107.536 34.3945 104.823 35.9793 102.133 36.6997C96.6165 38.1775 92.2 41.9751 87.584 45.0589C83.2572 47.9495 76.0725 49.5226 75.2069 55.8108C74.7529 59.109 73.9552 61.7349 74.2336 65.127C74.59 69.4705 74.5342 74.2287 76.0788 78.3302C77.5042 82.115 77.4708 86.4942 78.5422 90.3638C79.8115 94.9484 80.094 99.7567 80.9123 104.452C81.6011 108.405 81.1972 113.392 82.571 117.123C83.3564 119.256 83.1946 121.717 83.8628 123.873C84.4836 125.876 84.9711 128.096 85.1434 130.195C85.4318 133.71 86.5558 136.964 86.8406 140.435C87.065 143.17 87.2895 145.905 87.5139 148.64C87.6335 150.098 87.8087 154.296 89.6879 154.246C91.7492 154.192 94.5976 154.245 96.5041 153.473C98.7987 152.544 100.924 150.885 103.278 150.156C106.052 149.296 109.076 150.423 111.601 148.592C114.738 146.316 117.708 143.857 120.677 141.42C124.229 138.503 128.588 136.86 132.023 133.776C134.861 131.228 138.579 129.235 139.604 125.488C140.419 122.505 140.386 119.354 140.132 116.256C140.006 114.727 139.132 111.414 139.966 110.176C140.84 108.879 142.21 105.028 142.081 103.456C141.624 97.8862 139.062 93.9724 136.134 89.5895C135.414 88.5107 134.217 87.875 133.235 87.0422C131.812 85.8347 131.544 84.581 131.056 82.8172C130.407 80.4758 130.495 77.8878 129.958 75.5277C129.574 73.8414 128.978 72.2566 128.644 70.5413C127.921 66.8341 126.762 62.9458 125.397 59.4051C124.225 56.3658 123.945 52.8727 122.365 50.0129C120.963 47.4755 119.663 44.3546 119.426 41.47C119.341 40.4352 119.375 39.1812 118.652 38.4151C117.979 37.702 116.948 37.3816 116.861 36.3243" stroke="#0068FF" stroke-width="3" stroke-linecap="round"/>
<path d="M130.597 83.617C128.444 83.7937 128.22 85.033 126.516 86.0944C124.783 87.1734 123.278 87.7337 121.367 88.3261C119.648 88.8589 117.944 88.8229 116.451 89.9197C114.847 91.0977 113.277 92.3663 111.654 93.5508C105.982 97.6901 100.063 101.319 94.7141 105.844C90.5883 109.334 87.1316 115.512 95.4825 115.207C102.555 114.949 101.204 124.487 101.77 129.165C102.334 133.83 108.682 127.539 109.906 126.783C113.834 124.357 118.662 123.016 122.235 120.082C127.145 116.051 133.946 113.745 138.031 108.931C140.989 105.444 140.044 99.5262 139.697 95.2965C139.292 90.3587 131.676 86.1029 127.332 85.5989" stroke="#0068FF" stroke-width="3" stroke-linecap="round"/>
<path d="M107.261 112.529C107.511 114.725 109.102 114.067 108.964 112.389C108.894 111.536 108.09 112.185 108.148 112.884C108.177 113.24 108.667 114.732 108.643 113.701C108.625 112.912 107.754 112.603 108.183 113.31" stroke="#0068FF" stroke-width="3" stroke-linecap="round"/>
<path d="M132.138 97.2C130.985 97.937 130.456 98.5247 130.645 99.8934C130.733 100.53 132.378 101.784 132.768 100.814C133.52 98.9398 128.658 97.6263 131.175 101.135" stroke="#0068FF" stroke-width="3" stroke-linecap="round"/>
<path d="M89.8078 113.958C85.3991 114.598 92.3001 133.886 92.5451 136.872C92.9544 141.859 96.3252 146.386 96.7119 151.098" stroke="#0068FF" stroke-width="3" stroke-linecap="round"/>
<path d="M98.6133 48.9601C97.569 52.207 96.4901 55.6888 95.0386 58.7754C94.5151 59.8886 92.5633 63.2712 93.0649 64.603C93.3525 65.3667 96.5199 66.2688 97.1527 66.5528C99.3354 67.5327 101.71 68.1711 103.704 69.5146C105.104 70.4574 106.831 70.7528 108.195 71.7408C109.202 72.4693 109.354 71.2242 109.801 70.4188C111.697 66.9984 112.609 63.1529 114.496 59.7498C115.91 57.1988 115.562 57.1255 113.092 55.6991C111.959 55.0448 110.614 54.6747 109.344 54.4117C108.014 54.1363 106.942 53.0654 105.757 52.4684C104.174 51.6708 101.748 49.9884 99.9949 50.1322" stroke="#0068FF" stroke-width="3" stroke-linecap="round"/>
<path d="M100.278 53.5374C99.5684 56.0973 98.5745 58.7742 98.2584 61.416C98.1072 62.6803 97.6852 66.477 97.832 65.2122C98.0066 63.7077 98.5415 62.2467 98.7499 60.7329C98.8751 59.8234 99.9348 54.3497 100.66 54.1251C100.897 54.0514 100.03 58.2934 100.012 58.4155C99.7416 60.2311 99.6879 62.0105 99.8375 63.8335C100.152 67.6693 103.248 61.3724 103.645 60.3313C104.493 58.1072 105.639 56.2018 105.917 59.5973C106.108 61.9164 105.64 64.1131 105.645 66.4279C105.647 67.5554 106.548 64.2821 106.692 63.8186C107.141 62.3797 109.105 56.6657 109.491 61.375C109.616 62.8962 109.741 64.4174 109.866 65.9387C109.889 66.2274 110.382 67.9187 110.81 67.0038C111.24 66.0843 112.984 63.4675 111.958 62.4342C109.58 60.0382 106.33 58.8978 103.222 57.795C102.311 57.4718 101.253 56.6874 100.312 56.5579C100.239 56.548 98.8512 56.268 98.9743 56.2154C101.378 55.189 105.421 56.0828 107.895 56.4355C110.59 56.8196 111.721 59.0993 111.209 61.4245C110.57 64.3294 108.154 66.8138 106.943 69.4874C106.595 70.2566 106.74 69.6252 106.695 69.0792C106.594 67.8436 106.036 67.5291 104.903 66.9648C103.029 66.0318 101.204 65.4591 99.1279 65.6295" stroke="#0068FF" stroke-width="3" stroke-linecap="round"/>
<path d="M62.7003 96.8997C62.4473 92.9911 62.4887 89.099 62.1655 85.1602C61.8845 81.7357 60.8625 78.5797 60.4935 75.2279C59.9303 70.1119 58.8116 65.1759 58.3849 59.9753C57.9566 54.7564 58.9115 50.8809 61.2196 46.3643C63.6144 41.678 69.5979 40.2699 74.1939 38.539C76.6119 37.6284 78.5855 36.0362 81.3495 35.8094C83.7236 35.6145 84.9168 33.8161 86.7912 32.7919C88.2423 31.999 89.2621 30.7153 90.6329 30.0009C91.7167 29.4362 94.9557 29.4467 95.6453 28.4232C96.1792 27.6307 99.3482 28.3336 100.345 28.2518C101.976 28.1179 103.608 27.984 105.239 27.8502C107.828 27.6378 108.051 29.8623 109.98 30.7938C110.864 31.2205 113.45 32.3394 111.865 32.8768" stroke="#0068FF" stroke-width="3" stroke-linecap="round"/>
<path d="M98.398 25.4141C97.2159 23.5708 96.3675 23.4745 94.4446 23.0723C92.3627 22.6369 90.7289 20.5009 88.7601 20.2299C85.6649 19.8039 83.112 17.6275 80.4235 20.4617C79.5178 21.4165 77.9091 21.7208 76.7055 22.1475C74.9219 22.7797 74.2205 23.5726 73.0766 24.921C71.4398 26.8505 68.2076 28.5698 65.9775 29.7884C63.1008 31.3603 60.8136 33.7501 58.0892 35.4824C55.6218 37.0512 52.1714 38.5892 50.3943 40.9224C48.7511 43.0797 47.3366 46.5541 46.5714 49.1632C45.4431 53.01 46.1435 57.004 46.4678 60.9551C46.837 65.4545 48.4767 69.7711 48.8429 74.2339C49.2027 78.6193 49.1261 82.907 49.4844 87.2739C50.0927 94.6867 51.5544 102.056 52.1518 109.337C52.3747 112.052 52.2798 113.182 55.2327 112.94C58.2467 112.693 61.277 112.873 64.2057 112.632C66.8797 112.413 70.3838 111.588 72.9737 112.437C74.4655 112.925 76.003 112.483 77.546 113.037C78.0928 113.234 81.4651 113.49 80.3063 113.025" stroke="#0068FF" stroke-width="3" stroke-linecap="round"/>
<path d="M52.1068 114.054C51.5753 123.674 51.9529 133.066 52.7424 142.687C52.9351 145.036 53.1279 147.384 53.3206 149.733C53.4514 151.327 56.4816 151.461 57.5736 151.955C60.1334 153.114 64.1233 152.044 66.9336 152.592C70.2534 153.238 73.4859 154.095 76.7782 154.783C78.9435 155.236 81.4056 154.841 83.6309 154.745C84.3371 154.714 85.0237 155.059 85.8885 154.988C87.2036 154.88 87.7396 154.635 87.2702 156.16" stroke="#0068FF" stroke-width="3" stroke-linecap="round"/>
<path d="M60.6398 97.9274C59.8731 100.573 58.9332 103.239 59.1579 105.976C59.2389 106.963 60.3359 107.167 61.1935 107.285C62.408 107.452 62.6298 106.484 63.1776 105.646C64.2602 103.991 64.2402 101.553 64.7319 99.6389C65.2664 97.5575 64.8312 98.8067 63.724 98.9598C62.7621 99.0928 62.0476 98.9669 61.1353 98.7437" stroke="#0068FF" stroke-width="3" stroke-linecap="round"/>
<path d="M45.9123 49.0041C45.0638 47.7484 41.6433 47.7094 40.1968 47.2354C38.4564 46.6651 36.4422 46.7818 34.6016 46.9328C29.7886 47.3278 29.2628 53.0281 28.8833 56.7336C28.5809 59.6863 29.1657 62.8681 28.529 65.7609C28.283 66.8791 28.7307 68.1346 28.698 69.2702C28.653 70.8322 28.2093 72.4735 28.2546 74.02C28.4205 79.6844 29.5989 85.1814 30.0578 90.7736C30.1191 91.5198 29.9997 95.2864 29.8786 93.8115C29.8139 93.0222 32.2924 93.4204 33.0297 93.3387C34.5295 93.1724 35.5548 92.0792 36.9939 91.7517C39.4961 91.1823 39.1012 89.5706 39.1689 87.2169C39.3027 82.5712 40.5526 77.6798 40.174 73.0657C39.9055 69.7935 39.5516 65.3155 40.3435 62.0777C40.9204 59.7193 40.4168 57.017 41.4542 54.726C41.7998 53.9629 41.4828 53.1454 41.806 52.3405C42.051 51.7301 42.4536 50.9058 42.5691 50.3259C42.8075 49.1275 45.5357 47.4847 44.6354 49.1089" stroke="#0068FF" stroke-width="3" stroke-linecap="round"/>
<path d="M28.0359 50.47C27.7812 47.3666 30.4632 44.9282 32.7365 43.0618C34.557 41.5672 37.4513 39.435 39.7442 38.8208C42.2251 38.1562 44.6512 37.9659 47.2267 37.7545C48.0643 37.6858 52.0108 36.8877 51.4582 38.2643" stroke="#0068FF" stroke-width="3" stroke-linecap="round"/>
<path d="M58.3794 33.8379C58.0953 30.3752 56.1273 27.2792 55.831 23.6681C55.6081 20.9517 56.901 17.6507 59.0581 15.9999C61.0904 14.4447 66.2945 13.3199 68.4044 15.0187C70.8113 16.9568 77.3069 23.5095 74.744 21.7828C72.3833 20.1924 70.4422 16.994 67.0893 17.2691C64.6687 17.4677 62.4377 17.8296 60.1015 18.271C57.8518 18.6961 55.9909 21.6224 55.8624 23.7607C55.7781 25.163 55.1103 32.9371 56.642 33.552" stroke="#0068FF" stroke-width="3" stroke-linecap="round"/>
<path d="M29.7171 97.037C27.8581 97.5459 28.7872 106.325 32.5787 105.8C33.4342 105.682 34.1983 104.668 34.7993 104.142C35.8718 103.205 37.3446 103.006 38.441 102.106C39.4629 101.267 41.5727 100.527 41.4359 98.8605C41.2988 97.1898 40.2053 95.4994 39.6473 93.8892C38.9147 91.775 39.5603 91.4471 38.2734 92.8117C36.9641 94.2001 28.3264 95.755 28.4577 97.3546C28.5873 98.9346 29.662 100.626 30.2308 102.137C30.618 103.165 31.9265 106.331 32.002 103.705C32.0369 102.495 32.2177 101.401 32.1169 100.173C32.0903 99.8487 31.7593 96.1871 31.8855 96.1925C32.3611 96.2127 32.9685 101.247 33.88 101.932C34.2721 102.227 34.7722 97.5831 34.8696 96.876C35.002 95.9138 36.7008 100.252 36.963 99.18C37.0823 98.6921 37.4814 95.0744 38.3668 96.8509C39.6865 99.4986 39.5553 96.8291 39.4366 95.3824" stroke="#0068FF" stroke-width="3" stroke-linecap="round"/>
<path d="M35.028 104.313C35.1905 106.294 35.0918 108.496 35.8558 110.34C36.7032 112.384 37.9821 114.125 38.8985 116.089C40.3933 119.292 42.8069 122.422 43.2363 126.017C43.6196 129.225 44.9276 132.446 45.3164 135.701C45.7205 139.084 49.1789 140.997 49.4471 144.265" stroke="#0068FF" stroke-width="3" stroke-linecap="round"/>
<path d="M38.1191 100.202C40.7469 105.869 43.8552 111.984 45.5777 117.991C46.3261 120.601 48.3372 120.717 49.3689 122.417" stroke="#0068FF" stroke-width="3" stroke-linecap="round"/>
<path d="M32.4399 104.096C33.5099 109.673 35.0155 115.893 32.1073 120.93C30.8505 123.106 30.3415 125.98 29.5267 128.354C29.1459 129.464 28.0678 133.803 28.6299 134.832C29.4319 136.299 32.7492 137.273 34.1269 137.999C35.046 138.483 35.5325 134.039 35.6933 133.3C36.237 130.801 37.5724 128.859 38.8167 126.688C39.7469 125.064 40.3878 123.202 41.6029 121.769" stroke="#0068FF" stroke-width="3" stroke-linecap="round"/>
</svg>
