<svg width="247" height="245" viewBox="0 0 247 245" fill="none" xmlns="http://www.w3.org/2000/svg">
<path d="M52.5412 144.268L48.1484 125.31V115.832L55.084 97.7989L75.1975 73.2928L95.5422 59.8838L125.597 52.0233L151.721 49.4802L172.297 54.7967L192.18 73.2928L199.578 90.632L192.18 115.832L179.926 132.015L155.883 144.268L115.656 154.44L107.564 157.908L90.6872 186.576L79.3589 195.592L83.7515 167.156V154.44H61.7885L52.5412 144.268Z" fill="white"/>
<path d="M184.737 62.7397L185.188 62.1537C186.353 63.2302 187.573 64.2449 188.844 65.1936C190.353 66.226 191.838 67.2149 192.754 68.8766C193.271 69.5832 193.833 70.255 194.438 70.8875C195.937 73.0336 197.039 75.4308 197.692 77.9656C197.89 78.5062 198.238 79.0007 198.403 79.5449C199.137 82.0006 200.138 84.4197 200.456 86.9322C200.785 89.5978 201.194 92.313 200.805 95.0495C200.244 98.6812 199.592 102.277 198.697 105.856C197.985 108.846 197.038 111.775 195.864 114.615C194.49 117.731 192.904 120.749 191.116 123.647C190.109 125.042 188.94 126.313 187.632 127.431C186.078 128.976 184.492 130.481 182.874 131.945C182.474 132.311 181.847 132.418 181.428 132.782C180.838 133.36 180.281 133.971 179.76 134.612C179.438 134.976 179.199 135.589 178.804 135.708C176.586 136.399 175.509 138.669 173.294 139.438C172.908 139.58 172.749 140.628 172.426 140.632C170.524 140.796 169.784 143.223 167.728 142.969C166.063 144.711 163.55 144.861 161.667 146.2C161.391 146.357 161.081 146.446 160.764 146.462C159.065 146.752 157.428 147.326 155.919 148.16C155.804 148.203 155.697 148.461 155.673 148.443C153.784 147.498 152.266 149.404 150.448 149.107C150.095 149.052 149.676 149.39 149.283 149.631C148.669 149.988 147.704 148.887 147.322 150.114C146.358 149.468 146.018 150.645 145.344 150.839C145.281 150.854 145.215 150.861 145.15 150.858C144.217 150.823 143.148 150.488 142.391 150.836C141.59 151.1 140.772 151.303 139.941 151.445C138.523 151.878 137.023 151.946 135.668 152.505C135.329 152.629 135.19 152.969 134.766 152.696C134.668 152.632 134.558 152.589 134.442 152.571C134.327 152.553 134.209 152.56 134.096 152.591C131.904 153.702 129.445 154.179 126.996 153.969C126.572 155.202 124.912 153.708 124.523 155.06C122.411 154.608 120.641 156.16 118.699 156.145C115.833 156.119 113.294 157.366 110.526 157.75C109.619 157.881 108.696 158.973 108.071 159.825C107.083 161.278 106.172 162.782 105.343 164.331C103.918 166.816 102.528 169.309 101.173 171.81C100.05 173.861 99.046 175.973 97.878 177.996C96.6701 180.28 95.2829 182.465 93.7294 184.53C92.931 185.506 92.3859 186.6 91.6451 187.59C90.9043 188.581 90.1759 189.724 89.2783 190.693C87.1898 193.001 84.9863 195.212 82.9111 197.533C82.1608 198.377 81.5495 199.171 80.2826 199.277C79.8854 199.318 79.484 199.27 79.1079 199.136C78.7319 199.001 78.3908 198.784 78.11 198.5C77.8292 198.216 77.6158 197.873 77.4855 197.495C77.3553 197.118 77.3115 196.716 77.3575 196.319C77.5264 194.883 77.7758 193.458 78.1044 192.049C78.3103 191.273 77.8163 190.595 78.2657 189.695C78.8319 188.611 78.55 187.102 78.8529 185.825C79.6375 182.47 79.7443 178.988 80.7934 175.685C81.009 174.992 81.0785 174.263 80.9975 173.542C80.7657 171.358 82.0933 169.364 81.7652 167.179C82.7929 166.469 82.2505 165.301 82.491 164.381C82.7316 163.46 83.4475 162.593 83.0621 161.543C82.9977 161.207 82.9839 160.863 83.0213 160.524C82.9449 160.122 82.9361 159.711 82.9954 159.306C83.4606 157.804 82.5848 156.539 81.0749 156.699C79.7856 156.839 78.5097 157.254 77.2198 156.676C77.031 156.613 76.8254 156.626 76.6457 156.711C74.4619 157.924 71.9646 157.351 69.6339 157.829C67.1052 158.273 64.5007 157.881 62.2145 156.713C59.6933 155.441 57.4808 153.632 55.7321 151.415C55.2116 150.702 54.63 150.036 53.994 149.424C51.0612 146.995 50.1887 143.398 48.8087 140.066C47.8687 137.641 47.1519 135.136 46.6671 132.58C46.12 130.45 45.8662 128.256 45.9127 126.057C46.0356 123.55 46.3885 121.072 46.543 118.58C46.6866 117.283 46.9669 116.005 47.3791 114.768C47.825 113.141 48.8795 111.501 48.7472 109.946C48.5734 107.872 50.1608 106.299 49.789 104.306C49.7418 104.035 50.0157 103.706 50.1449 103.414C50.6339 102.358 51.0518 101.276 51.6119 100.247C52.4095 98.7186 53.2838 97.2325 54.137 95.7365C54.5076 95.0748 54.9655 94.46 55.2756 93.7766C56.092 91.9175 57.6197 90.6122 58.762 88.9489C60.9552 85.612 63.8395 82.8452 66.206 79.6462C67.5643 77.8073 69.5663 76.4332 71.3049 74.8666C73.5222 72.8615 75.7128 70.8311 77.995 68.9073C79.7583 67.3842 81.6494 66.0421 83.4804 64.6081C84.7749 63.5986 86.0801 62.5941 87.3556 61.5566C88.7958 60.4879 90.4417 59.729 92.1896 59.3276C93.7227 58.8967 95.1862 58.2284 96.6917 57.7462C98.1438 57.2676 99.5677 56.7072 100.957 56.0677C103.659 54.9622 106.419 54.0024 109.225 53.1921C111.778 52.4132 114.375 51.7761 116.992 51.2191C120.381 50.449 123.803 49.8159 127.2 49.069C129.39 48.5898 131.547 47.7811 133.762 47.5379C137.327 47.1504 140.896 46.5155 144.522 46.8679C145.686 46.984 146.86 46.8163 148.011 46.8235C152.079 46.8296 156.152 46.5622 160.177 47.4076C160.749 47.4095 161.321 47.3724 161.889 47.2966C162.926 47.28 163.962 47.3853 164.974 47.6104C165.873 47.8855 167.157 47.6858 167.531 49.0384C167.61 49.2546 168.172 49.3289 168.518 49.4826C169.412 49.8905 170.598 49.8759 170.843 51.2583C170.89 51.5302 171.396 51.8352 171.74 51.9368C173.336 52.477 174.726 53.4972 175.721 54.8578C175.866 55.0889 176.058 55.287 176.285 55.4395C177.801 55.9939 179.129 56.969 180.111 58.2505C180.662 58.8665 181.348 59.3466 182.115 59.6533C182.766 59.922 183.344 60.3422 183.8 60.879C184.256 61.4158 184.577 62.0537 184.737 62.7397ZM82.8918 189.478C83.4172 189.553 83.9528 189.468 84.4296 189.235C84.9064 189.003 85.3027 188.632 85.5673 188.173C86.3884 186.995 87.3884 185.971 88.211 184.846C89.3194 183.353 90.396 181.845 91.4537 180.309C92.1396 179.312 92.7854 178.278 93.4023 177.237C94.8366 174.777 96.2653 172.302 97.6882 169.811C98.6897 168.051 99.4934 166.205 100.682 164.525C101.768 163.011 102.635 161.351 103.254 159.594C103.903 157.556 105.116 155.744 106.752 154.368C107.349 153.859 108.057 153.498 108.819 153.312C111.977 152.653 115.156 152.1 118.326 151.498C119.408 151.293 120.48 151.04 121.577 150.804C124.14 150.121 126.741 149.586 129.365 149.2C133.079 148.837 136.471 147.216 140.157 146.801C142.234 146.565 144.257 145.893 146.294 145.426C148.331 144.959 150.614 144.613 152.731 144.055C155.517 143.313 158.267 142.427 161.019 141.592C163.117 140.874 165.11 139.878 166.943 138.631C170.23 136.504 173.382 134.177 176.383 131.663C179.513 129.208 182.438 126.502 185.13 123.573C186.517 121.978 188.272 120.721 188.934 118.559C189.256 117.949 189.628 117.366 190.048 116.818C190.707 115.534 191.241 114.172 191.991 112.942C192.724 111.809 193.212 110.535 193.422 109.202C193.578 108.409 193.807 107.633 194.105 106.883C194.355 106.178 194.025 105.16 195.14 104.926C194.972 104.103 195.098 103.248 195.497 102.508C195.807 101.825 195.534 100.961 195.911 100.148C196.287 99.3355 195.985 98.3686 196.304 97.3753C196.551 96.4615 196.704 95.5246 196.759 94.5796C196.776 94.4593 196.798 94.3025 196.733 94.2212C196.029 93.3053 196.311 92.2116 196.313 91.2382C196.313 87.9173 195.217 84.8582 194.219 81.7805C193.649 80.0096 192.676 78.36 192.177 76.5714C191.646 74.6965 190.565 73.0237 189.075 71.7686C187.801 70.6849 186.591 69.5603 185.313 68.5132C182.968 66.5871 180.613 64.6821 178.212 62.8201C176.813 61.7297 175.047 60.9757 173.964 59.6469C172.77 58.1834 170.943 57.6707 169.805 56.2394C169.51 55.8656 168.88 55.7022 168.434 55.4891C167.915 55.2677 167.424 54.9863 166.97 54.6506C165.631 53.4451 163.936 52.7074 162.142 52.5488C159.819 52.2356 157.475 52.1052 155.136 51.9382C153.153 51.7892 151.178 51.7076 149.192 51.6212C148.304 51.5879 147.464 51.6859 146.552 51.5907C145.641 51.4956 144.755 52.3289 143.962 51.3844C143.934 51.3072 143.537 51.3737 143.439 51.4885C142.408 52.5942 141.108 51.415 140.005 51.8722C139.435 51.0824 138.81 51.4342 138.184 51.8042C137.971 51.9264 137.738 52.0117 137.496 52.0564C135.036 52.3719 132.579 52.6248 130.134 53.005C129.302 53.1261 128.543 53.5886 127.731 53.7638C125.565 54.1903 123.377 54.4846 121.206 54.8956C119.625 55.114 118.066 55.4662 116.545 55.9483C115 56.5149 113.226 56.2894 111.903 57.4585C109.674 57.2336 107.81 58.5306 105.748 59.0242C103.28 59.6054 100.975 60.8714 98.5967 61.8404C98.1941 62.0579 97.7624 62.2163 97.3147 62.3107C94.8455 62.5067 92.8222 64.0376 90.491 64.5861C89.271 64.8672 88.9038 65.992 88.0644 66.6417C85.9458 68.2951 83.44 69.4422 81.6325 71.4898C80.3539 72.9489 78.708 73.9558 77.2806 75.2243C75.1304 77.1259 73.2496 79.3318 71.0487 81.1907C68.8478 83.0496 67.3016 85.3079 65.5428 87.4165C65.2563 87.7582 64.9163 88.3122 64.6015 88.3138C63.73 88.3269 63.7267 88.9151 63.4603 89.4072C63.1861 89.9976 62.8514 90.5579 62.4614 91.0792C59.6307 94.2883 57.3142 97.9166 55.5944 101.835C54.6936 103.918 54.0527 106.16 53.3687 108.356C52.5437 110.884 51.8516 113.416 51.1314 115.968C51.0977 116.312 51.1046 116.66 51.1519 117.003C51.1504 117.214 51.1662 117.567 51.0686 117.612C50.3813 117.864 50.5791 118.475 50.5544 118.957C50.4646 120.742 50.5689 122.579 50.328 124.359C50.19 125.754 50.3062 127.164 50.6708 128.518C50.8952 129.583 50.8506 130.704 51.542 131.633C51.0569 134.3 52.8558 136.409 53.2655 138.887C53.4001 139.704 53.6499 140.497 54.0073 141.244C54.4856 142.134 55.0153 142.996 55.5939 143.825C56.0549 144.532 56.0651 145.659 57.2162 145.858C57.2162 145.858 57.253 145.959 57.27 146.005C57.7093 147.158 58.5113 148.137 59.5551 148.795C60.8816 149.64 61.7137 151.096 63.3625 151.577C64.6498 151.981 66.1157 151.917 67.1225 153.037C67.217 153.151 67.4953 153.146 67.6822 153.13C69.8141 152.97 71.9404 152.794 74.0821 152.613C77.8259 152.309 81.573 151.942 85.322 151.723C86.8026 151.627 87.5777 152.569 87.5689 154.194C87.5516 155.269 87.1998 156.388 87.3764 157.419C87.817 159.886 87.089 162.177 86.816 164.538C86.6823 165.726 86.2245 166.867 86.0128 168.057C85.575 170.566 85.223 173.07 84.8014 175.599C84.7026 176.11 84.6346 176.627 84.5978 177.146C84.5683 178.164 84.6014 179.186 84.5826 180.21C84.5714 180.302 84.5382 180.391 84.4857 180.468C84.4332 180.545 84.363 180.609 84.2809 180.653C83.6025 180.858 83.902 181.388 83.7718 181.821C83.4621 183.014 83.3236 184.245 83.3605 185.477C83.2825 186.816 83.125 188.15 82.889 189.471L82.8918 189.478Z" fill="#1878FF"/>
<g clip-path="url(#clip0_737_745)">
<path d="M115.454 89.206C113.838 90.3809 112.02 90.3008 110.151 89.8872C108.696 89.5657 107.202 89.6829 105.747 89.5343C104.45 89.4066 103.191 89.8326 101.853 89.4756C100.96 89.2356 99.8324 89.7067 98.8513 90.0091C96.7755 90.617 94.8351 91.6165 93.1351 92.9539C92.6591 93.3704 92.3446 93.9409 92.2465 94.5658C91.7974 96.6347 91.5941 98.7495 91.6408 100.866C91.6267 101.74 91.7728 102.609 92.0717 103.431C92.4956 104.842 93.0848 106.198 93.8269 107.471C94.6051 108.535 95.5389 109.476 96.5968 110.263C98.0212 111.443 99.5697 112.491 101.028 113.609C101.311 113.771 101.604 113.916 101.906 114.041C102.185 113.209 102.375 112.349 102.473 111.476C102.484 110.115 102.236 108.754 102.196 107.39C102.161 106.296 101.98 105.098 103.285 104.483C103.436 104.427 103.486 104.151 103.575 104.003C104.598 104.225 105.499 104.823 106.101 105.68C106.702 106.536 106.96 107.587 106.822 108.624C106.694 109.82 106.625 111.024 106.578 112.227C106.531 113.429 106.53 114.622 106.549 115.829C106.581 116.091 106.657 116.345 106.774 116.58L107.873 119.575C106.263 120.335 104.471 120.623 102.704 120.408C99.4683 120.245 96.4006 119.128 93.2334 118.681C92.7555 118.612 92.2866 118.49 91.807 118.436C89.7751 118.204 89.7751 118.204 89.2234 116.308C89.5972 115.819 89.8719 115.158 90.3586 114.879C90.9568 114.585 91.6235 114.46 92.2875 114.516C93.8903 114.596 93.8875 114.648 95.2169 114.217C94.4193 113.375 93.7122 112.564 92.9408 111.812C92.033 110.924 90.9591 110.19 90.5152 108.902C90.3406 108.572 90.1101 108.275 89.8339 108.024C89.628 107.776 89.2482 107.563 89.2169 107.302C88.9317 105.251 87.4369 103.644 87.4304 101.57C87.4144 99.1763 87.169 96.7446 87.9946 94.4517C88.9717 91.7295 90.5411 89.408 93.3129 88.19C94.7706 87.4402 96.3016 86.8425 97.8816 86.4062C99.4527 86.067 101.108 85.546 102.775 86.2131C103.129 86.314 103.504 86.3087 103.854 86.198C104.827 85.8973 105.873 85.9368 106.82 86.31C106.962 86.3655 107.132 86.4756 107.255 86.4378C109.263 85.8017 111.168 86.784 113.147 86.8337C113.617 86.841 114.139 87.3824 114.517 87.768C114.873 88.2178 115.187 88.6991 115.454 89.206Z" fill="#0068FF"/>
<path d="M149.057 97.2759C148.493 96.8937 147.999 96.5862 147.522 96.2441C147.254 95.981 147.057 95.655 146.948 95.2959C146.839 94.9369 146.821 94.5562 146.897 94.1887C147.083 93.0658 147.203 91.9329 147.255 90.7958C147.398 90.0782 147.499 89.3527 147.557 88.6231C147.493 87.5474 147.261 86.4468 147.554 85.4052C147.886 84.2132 146.953 83.4707 146.747 82.4611C146.599 81.93 146.422 81.4074 146.216 80.8958C146.035 80.4019 146.101 79.6808 145.773 79.4132C145.048 78.7323 144.52 77.8687 144.245 76.9131C143.425 75.1539 142.13 73.6584 140.506 72.5949C140.048 72.2591 139.517 72.0363 138.956 71.9447C138.396 71.8532 137.822 71.8955 137.281 72.0681C136.07 72.4116 134.971 73.0589 133.714 73.2544C133.272 73.4337 132.868 73.6964 132.525 74.0282C130.376 75.423 128.628 77.3544 127.454 79.6317C126.048 82.4374 125.216 85.4953 125.006 88.6265C125.972 87.9703 126.69 87.4986 127.395 87.0315C128.296 86.3922 129.145 85.6712 130.097 85.1136C130.739 84.8367 131.411 84.6382 132.1 84.5224C131.969 85.4759 131.604 86.2849 132.666 86.8293C131.793 87.6022 131.561 88.6718 130.433 89.3008C128.396 90.4436 126.606 92.027 124.7 93.3941C122.996 94.6229 121.381 94.1377 120.426 92.1817C120.178 91.662 119.934 91.1337 119.734 90.5891C119.109 88.8858 118.548 87.1592 117.898 85.4651C117.575 84.5849 117.615 84.0097 118.473 83.4293C119.33 82.8489 119.673 81.8038 120.998 81.9711L121.705 83.4075C122.086 82.6642 122.427 82.144 122.642 81.5763C123.068 80.2288 123.572 78.9071 124.15 77.6178C124.759 76.4136 125.548 75.3098 126.492 74.345C126.931 73.8966 127.312 73.3901 127.76 72.9457C128.777 71.924 129.997 71.1265 131.341 70.6045C132.234 70.277 133.012 69.6179 133.916 69.3583C135.582 68.8437 137.291 68.4742 139.021 68.2541C139.892 68.2765 140.743 68.5206 141.494 68.9634C142.233 69.3672 142.938 69.8292 143.603 70.3451C144.806 71.242 145.906 72.2698 146.883 73.4095C147.481 74.0908 147.981 74.8531 148.367 75.674C149.069 77.022 149.681 78.4152 150.199 79.8444C150.754 81.3578 151.488 82.8488 151.463 84.5246C151.442 85.7607 151.643 86.9732 151.316 88.2355C151.139 89.3687 151.1 90.5192 151.2 91.6617C151.222 93.7373 151.047 95.806 149.057 97.2759Z" fill="#0068FF"/>
<path d="M111.82 124.227L113.849 122.764C114.651 123.562 115.804 123.649 116.424 124.693C116.649 125.071 117.469 125.172 118.062 125.242C119.693 125.456 121.064 126.296 122.578 126.84C123.464 127.14 124.43 127.597 125.468 127.216C125.878 127.133 126.3 127.127 126.712 127.199C128.596 127.262 130.497 127.47 132.242 126.607C132.917 126.336 133.535 125.941 134.064 125.443C135.832 123.486 136.934 121.085 138.236 118.818C138.674 118.054 138.667 117.036 139.059 116.225C139.966 114.347 140.997 112.518 141.97 110.666C142.126 110.365 142.244 110.041 142.52 109.423L140.405 109.983C139.689 109.875 138.988 109.689 138.312 109.429C137.696 109.032 137.124 108.569 136.607 108.05C137.091 106.608 138.215 105.952 139.433 105.239C141.411 104.089 143.243 102.699 145.158 101.436C145.806 100.997 146.5 100.629 147.227 100.339C147.646 100.249 148.084 100.31 148.462 100.512C148.84 100.714 149.134 101.044 149.291 101.443C149.715 102.422 150.025 103.444 150.392 104.444C151.266 106.825 152.209 109.181 153.057 111.571C153.589 113.021 154.135 114.509 153.526 116.198C152.786 116.139 152.284 114.771 151.555 115.779C150.032 115.037 149.956 113.614 149.46 112.438C149.037 111.443 148.636 110.448 148.141 109.236C147.758 109.536 147.418 109.888 147.131 110.282C146.542 111.554 145.972 112.819 144.788 113.685C145.024 115.035 143.645 115.642 143.381 116.881C142.806 119.123 141.828 121.242 140.495 123.134C140.334 123.308 140.144 123.454 139.933 123.562L140.387 124.114C140.013 124.653 139.568 125.138 139.063 125.556C138.665 125.802 138.474 125.908 138.383 126.445C138.329 126.845 137.903 127.231 137.578 127.559C136.904 128.29 136.171 128.963 135.384 129.571C134.732 130.064 133.974 130.399 133.171 130.548C130.526 130.879 127.873 131.773 125.187 130.603C123.767 130.98 122.471 130.464 121.183 129.988C119.336 129.301 117.496 128.575 115.663 127.846C115.073 127.61 114.533 127.234 113.932 127.045C113.306 126.896 112.752 126.532 112.367 126.018C111.981 125.503 111.788 124.869 111.82 124.227Z" fill="#0068FF"/>
</g>
<defs>
<clipPath id="clip0_737_745">
<rect width="69.924" height="57.2909" fill="white" transform="translate(79.2695 89.3684) rotate(-20.1455)"/>
</clipPath>
</defs>
</svg>
