<svg width="152" height="154" viewBox="0 0 152 154" fill="none" xmlns="http://www.w3.org/2000/svg">
<path d="M74.1873 149.723C109.803 163.03 147.375 117.645 147.375 76.1442C147.375 34.6432 114.608 1 74.1873 1C33.7671 1 1 34.6432 1 76.1442C1 117.645 33.7671 149.723 74.1873 149.723Z" fill="#1878FF" stroke="white" stroke-width="1.6852" stroke-miterlimit="10"/>
<path d="M26.7024 38.9333C40.0008 31.0851 39.6663 25.3641 31.5641 14.947C19.9896 24.7854 10.3068 35.4581 5.17379 50.1062C-5.99891 81.9896 9.31891 113.635 17.1646 123.138C27.2237 135.322 24.7948 120.686 30.245 107.878C34.6051 97.6316 32.0617 93.7983 30.245 93.1624C27.1566 91.9816 20.9797 87.7668 20.9797 80.3546C20.9797 72.9423 18.4363 65.6391 17.1646 62.914C14.8028 58.1906 13.404 46.7816 26.7024 38.9333Z" fill="white" stroke="white" stroke-width="0.891096"/>
<path d="M142.246 38.6615C136.796 25.1451 113.087 11.0473 101.915 5.68799C103.459 12.2282 104.149 24.8726 94.5569 23.1285C84.9646 21.3845 81.2948 25.4902 80.659 27.7611C78.5697 33.1205 76.8984 43.8391 86.9267 43.8391C96.955 43.8391 101.097 49.1076 101.915 51.7418C101.915 55.557 97.6635 62.0972 80.659 57.737C59.4034 52.2869 58.8583 60.4621 54.2257 67.0023C49.5931 73.5425 53.6807 89.6205 65.126 88.8029C74.2823 88.1489 79.2964 93.0722 80.659 95.6156C82.4757 100.521 86.2726 112.184 86.9267 119.596C87.7442 128.862 90.7418 128.862 101.915 124.502C110.853 121.013 111.089 109.604 110.09 104.336C115.722 97.8865 124.969 84.9878 116.903 84.9878C108.836 84.9878 109 76.2676 110.09 71.9074C115.903 74.905 126.44 78.1206 122.08 67.0023C117.72 55.884 130.8 56.1928 137.886 57.737C141.61 57.0103 147.696 52.1779 142.246 38.6615Z" fill="white" stroke="white" stroke-width="0.891096"/>
<g clip-path="url(#clip0_737_521)">
<path d="M41.926 7.88721L44.262 6.92536C46.0188 6.22321 47.7755 5.4922 49.5509 4.82852C49.9539 4.72373 50.3728 4.70085 50.7843 4.76119C51.6066 4.8189 51.8402 4.67462 52.3355 3.95323C52.513 3.69353 52.8868 3.56851 53.1578 3.36652C53.6157 3.03949 54.0922 4.78044 54.6435 3.36652C54.765 3.06834 55.9704 3.203 56.6712 3.21262C57.372 3.22223 58.1155 2.58481 58.8537 2.56557C59.543 2.45032 60.1124 2.5784 60.8106 2.56557C61.4647 2.66176 61.5828 0.724734 62.6013 2.004C63.2834 2.86967 63.8111 2.09057 64.4652 2.004C65.1193 1.91743 65.5389 1.47164 66.221 1.2985C66.9819 1.08319 67.7679 0.976403 68.5571 0.981106C70.8744 1.06767 73.2292 1.2889 75.4999 1.37547C77.3687 1.43318 79.2376 1.37547 81.1064 1.37547C82.3399 1.37547 83.5827 1.51011 84.8441 1.51011C85.5343 1.49086 86.2218 1.41367 86.8998 1.27928C88.9462 0.942629 90.8431 1.68326 92.7774 2.12572C94.8654 2.45479 96.9223 2.96642 98.9259 3.65506C101.942 4.91089 104.855 6.4163 107.635 8.15653C111.055 10.3303 114.26 12.8696 117.568 15.2262C120.875 17.5827 124.034 19.9489 127.529 21.9592C130.332 23.5366 132.341 26.1144 134.154 28.8364C135.107 30.3532 136.276 31.7148 137.62 32.8762C140.19 34.9538 141.928 37.6855 143.741 40.3498C143.049 42.1389 145.442 43.3412 144.61 45.1591C144.571 45.3839 144.61 45.6157 144.722 45.8131C145.871 47.9388 145.862 50.4878 147.058 52.5942C148.254 54.7007 148.562 56.9322 149.562 59.0386C150.346 60.7275 150.785 62.5641 150.852 64.4347C150.917 66.6373 152.104 68.6957 151.683 71.0522C151.224 72.9944 151.352 75.0344 152.048 76.9003C150.001 77.9391 152.347 79.2087 151.88 80.4014C151.319 81.8154 150.945 83.287 150.562 84.7971C150.179 86.3072 149.712 87.6827 149.329 89.1832C149.104 90.0585 149.02 90.9722 148.777 91.8379C147.366 97.0704 145.825 102.197 142.825 106.824C141.522 108.714 140.496 110.792 139.779 112.989C138.804 115.827 137.256 118.42 135.238 120.597C133.898 122.329 132.889 124.307 132.266 126.426C131.394 128.58 130.125 130.54 128.528 132.197C128.286 132.486 127.874 132.669 127.734 132.986C126.557 135.66 124.146 137.286 122.464 139.536C121.577 140.532 120.576 141.414 119.483 142.162C116.437 144.682 113.344 147.145 110.316 149.684C109.074 150.732 107.513 150.896 106.102 151.271C104.878 151.535 103.68 151.915 102.523 152.406C101.701 152.8 100.58 151.935 99.7201 152.791C98.3839 151.829 97.9634 153.262 97.4962 153.599C95.9076 153.599 94.6182 153.599 93.338 153.599C92.5718 153.599 91.8056 153.531 91.0394 153.474C88.6286 153.262 86.2084 153.185 83.7882 152.839C82.695 152.685 81.4428 152.752 80.2654 152.714C77.2005 152.627 74.3505 151.54 71.3697 151.223C70.0522 151.088 68.7159 151.088 67.3797 151.079C65.2305 151.079 63.072 150.963 60.9321 151.079C57.6056 151.319 54.6715 149.876 51.5879 148.953C50.8404 148.732 50.2423 147.991 49.5042 147.789C46.7009 146.827 43.8977 145.759 41.029 145.067C36.5624 143.99 32.6751 141.768 28.8066 139.363C26.4239 137.872 24.0131 136.478 21.7705 134.737C18.2477 132.034 16.1639 128.158 13.968 124.426C12.4355 121.857 11.0059 119.203 9.66965 116.519C8.73522 114.595 7.36167 112.777 7.1561 110.642C6.95053 108.507 5.43675 106.574 5.39003 104.429C5.39003 101.601 3.67065 99.2538 3.60524 96.474C3.5118 92.3092 3.30622 88.1347 3.25016 83.9699C3.19409 79.8051 3.25016 75.5825 3.25016 71.3889C3.25016 68.7918 3.07258 66.1756 3.32487 63.6075C3.64392 61.6119 4.10945 59.6441 4.71727 57.7209C4.77333 57.5093 4.92275 57.3169 4.97882 57.0957C5.67029 54.3833 6.25907 51.6516 7.05333 48.9776C7.64201 46.9962 8.07179 44.7166 9.32392 43.2546C11.1274 41.1578 12.3048 38.5415 14.4913 36.7621C15.2343 36.031 15.8813 35.2032 16.4162 34.2997C18.855 30.8659 21.2192 27.3744 23.7328 23.9983C24.8955 22.5481 26.1637 21.1912 27.5265 19.9393C28.4048 19.0832 29.3953 18.4099 30.3298 17.5827C31.2642 16.7555 32.2641 15.659 33.2172 14.6972C34.1703 13.7353 35.03 12.6773 36.0205 11.8116C37.2633 10.8017 38.6368 9.95521 39.9637 9.04145C41.6363 9.97445 41.655 8.6567 41.926 7.88721ZM36.9641 18.5542C36.4532 19.389 35.8947 20.1919 35.2916 20.9588C34.5534 21.7956 33.6937 22.5267 32.8807 23.2961C32.2827 23.8636 31.6941 24.4311 31.0773 24.9794C29.9648 25.7794 28.9402 26.7018 28.0217 27.7303C27.4798 28.4709 26.2277 28.9711 26.2931 29.4135C26.4987 30.8178 25.3587 31.2411 24.8915 32.0683C24.0318 33.479 23.116 34.8608 22.1442 36.2138C21.3873 37.2623 20.7053 38.5896 19.6681 39.0994C18.3785 39.7535 18.556 41.5425 17.1357 41.8599C16.7713 43.7836 15.108 44.7455 14.1362 46.1979C12.4759 48.7791 11.2971 51.656 10.6602 54.6814C10.3595 55.9161 10.1564 57.1739 10.0528 58.4423C9.9687 59.7793 9.17443 60.77 8.76328 61.9338C7.82886 64.5308 8.19322 67.3106 7.99699 70.0134C8.93142 70.8887 8.05307 71.9371 8.2493 72.899C8.39285 73.9474 8.41487 75.0097 8.31478 76.0635C8.22133 78.3912 8.8007 80.7477 7.98775 83.0465C9.12775 85.1434 7.73536 87.3653 8.35208 89.5775C8.79126 91.1838 8.49229 93.0017 8.52032 94.7331C8.48345 95.3491 8.60904 95.9639 8.88374 96.5125C9.15843 97.061 9.57205 97.523 10.0809 97.8495C10.372 98.016 10.6089 98.2673 10.7618 98.5719C10.9148 98.8765 10.9769 99.2208 10.9405 99.5616C10.9287 102.43 11.403 105.278 12.3421 107.978C12.8093 109.392 13.0896 110.863 13.6503 112.248C14.7091 114.638 15.8945 116.966 17.2012 119.222C17.6403 120.03 17.631 121.251 18.2384 121.8C19.939 123.329 20.5557 125.561 21.9761 127.282C23.3964 129.004 24.1158 131.553 26.9191 131.62C27.676 133.332 29.1711 133.929 30.7876 134.333C30.7876 134.333 30.7876 134.496 30.8904 134.535C31.8479 135.36 32.8879 136.079 33.9927 136.68C35.0954 137.17 35.7681 138.228 37.0203 138.536C38.9545 138.998 40.7579 139.979 42.7296 140.373C46.3719 141.058 49.912 142.229 53.2606 143.855C55.1855 144.817 57.2505 145.894 59.6613 145.779C62.8851 145.673 66.1369 146.163 69.3607 146.019C72.5844 145.875 75.6213 146.721 78.7049 147.347C80.3635 147.739 82.0584 147.945 83.7602 147.962C85.003 147.962 86.2551 148.251 87.4979 148.203C90.3011 148.097 93.1044 148.741 96.0479 148.203C97.4682 147.933 98.9259 147.549 100.346 147.241C104.084 146.51 107.822 145.606 110.625 142.653C111.85 141.316 113.238 140.149 114.755 139.18C116.231 138.395 117.47 137.208 118.334 135.747C118.624 135.227 118.941 134.304 119.268 134.294C120.866 134.294 121.072 132.746 121.38 131.928C121.941 130.389 123.081 129.86 124.183 129.177L124.071 127.898C124.791 127.725 125.08 127.263 125.856 126.532C126.632 125.801 127.145 125.57 127.173 124.493C127.239 121.684 127.473 121.348 129.323 119.684L129.126 118.414C130.79 116.288 132.322 114.316 133.799 112.345C133.823 112.316 133.841 112.282 133.853 112.246C133.864 112.209 133.868 112.171 133.864 112.133C133.546 110.844 134.565 110.113 135.051 109.171C135.378 108.545 135.985 107.92 135.985 107.247C136.068 106.119 136.527 105.056 137.284 104.236C137.985 103.316 138.631 102.352 139.218 101.351C139.77 100.389 140.153 99.3211 140.629 98.2919C141.311 96.7722 141.984 95.2621 142.648 93.7424C142.704 93.6077 142.648 93.4346 142.648 93.2807C142.956 91.5878 143.171 89.8661 143.582 88.2021C144.245 85.6147 145.451 83.1139 145.712 80.5072C146.376 74.361 147.198 68.1474 145.068 62.0685C144.572 60.6449 144.46 59.0579 143.806 57.7305C141.754 53.3672 140.265 48.7464 139.377 43.9856C139.198 43.331 138.98 42.6885 138.723 42.0619C138.134 40.2536 136.677 39.1764 135.537 37.7817C134.59 36.5321 133.339 35.563 131.911 34.973C129.725 34.1074 127.837 32.7415 127.893 29.8656C127.893 29.452 127.575 29.0384 127.407 28.6248C126.706 26.9416 125.071 26.4221 123.726 25.5565C121.922 24.4023 120.072 23.3346 118.25 22.2092C117.999 22.0601 117.777 21.8644 117.596 21.6321C116.434 20.23 115.018 19.0736 113.428 18.2272C111.307 17.0537 109.448 15.5051 107.485 14.1585C105.785 12.9947 104.14 11.7635 102.327 10.7632C99.7822 9.45595 97.1188 8.40893 94.3752 7.63715C90.6234 6.51322 86.7214 6.01317 82.8164 6.15589C78.3498 6.22322 73.8833 6.15588 69.4261 6.03084C68.3463 5.99298 67.2827 6.30962 66.3893 6.93499C66.0248 7.15621 65.6417 7.34859 65.2772 7.56982C63.4084 8.71442 61.2966 8.53167 59.3343 8.64709C52.6158 9.15687 46.8224 12.129 41.1224 15.3801C39.9395 16.0132 38.9304 16.9427 38.1883 18.0829C37.6089 19.0447 37.1605 18.5734 36.9549 18.5542H36.9641Z" fill="white"/>
</g>
<defs>
<clipPath id="clip0_737_521">
<rect width="148.723" height="152.637" fill="white" transform="translate(3.27734 1)"/>
</clipPath>
</defs>
</svg>
