<svg width="26" height="25" viewBox="0 0 26 25" fill="none" xmlns="http://www.w3.org/2000/svg">
<path d="M13 25C19.9036 25 25.5 19.4036 25.5 12.5C25.5 5.59644 19.9036 0 13 0C6.09644 0 0.5 5.59644 0.5 12.5C0.5 19.4036 6.09644 25 13 25Z" fill="#254788"/>
<path d="M20.4686 13.5058V18.6593H17.4807V13.8512C17.4807 12.6439 17.0493 11.8195 15.9675 11.8195C15.142 11.8195 14.6515 12.3745 14.435 12.912C14.3563 13.104 14.336 13.3708 14.336 13.6402V18.6591H11.3479C11.3479 18.6591 11.3881 10.5157 11.3479 9.67277H14.3362V10.9462C14.3302 10.9562 14.3218 10.966 14.3164 10.9756H14.3362V10.9462C14.7333 10.3352 15.4414 9.46176 17.0291 9.46176C18.9948 9.46176 20.4686 10.7461 20.4686 13.5058ZM8.22216 5.34106C7.20007 5.34106 6.53137 6.01199 6.53137 6.89348C6.53137 7.75626 7.18068 8.44657 8.18295 8.44657H8.20233C9.24448 8.44657 9.89245 7.75626 9.89245 6.89348C9.87262 6.01199 9.24448 5.34106 8.22216 5.34106ZM6.70896 18.6593H9.69592V9.67277H6.70896V18.6593Z" fill="white"/>
</svg>
