<svg width="21" height="24" viewBox="0 0 21 24" fill="none" xmlns="http://www.w3.org/2000/svg">
<path d="M11.0288 0C12.313 0 13.6727 0 14.9568 0C15.0324 1.4901 15.5612 3.05471 16.6942 4.17229C17.8273 5.28986 19.4137 5.8114 21 5.96041V9.98368C19.5647 9.90918 18.054 9.61116 16.7698 9.01512C16.1655 8.7916 15.6367 8.41908 15.1079 8.12106C15.1079 11.0268 15.1079 13.9325 15.1079 16.8382C15.0324 18.2537 14.5791 19.5948 13.7482 20.7869C12.464 22.7241 10.1223 23.9161 7.78058 23.9906C6.34532 24.0651 4.91007 23.6926 3.70144 22.9476C1.66187 21.6065 0.226619 19.4458 0 17.1362C0 16.6146 0 16.1676 0 15.6461C0.151079 13.7834 1.13309 11.9208 2.56835 10.7287C4.23022 9.31314 6.57194 8.64259 8.76259 9.01512C8.76259 10.5052 8.68705 11.9208 8.68705 13.4109C7.70504 13.1129 6.4964 13.1874 5.66547 13.7834C5.06115 14.156 4.53237 14.8265 4.30576 15.4971C4.07914 16.0186 4.15468 16.5401 4.15468 17.0617C4.3813 18.7008 5.96763 20.0419 7.70504 19.8929C8.83813 19.8929 9.89568 19.2223 10.5 18.3283C10.7266 18.0302 10.8777 17.6577 10.8777 17.2852C10.9532 15.4971 10.9532 13.7089 10.9532 11.9953C11.0288 7.97205 11.0288 4.02328 11.0288 0Z" fill="#254788"/>
</svg>
