<svg width="300" height="31" viewBox="0 0 300 31" fill="none" xmlns="http://www.w3.org/2000/svg">
<g clip-path="url(#clip0_302_1088)">
<path d="M1.84608 3H34.1525C35.172 3 35.9985 3.82654 35.9985 4.84608V24.2299C35.9985 25.2495 35.172 26.076 34.1525 26.076H1.84608C0.826536 26.076 0 25.2495 0 24.2299V4.84608C0 3.82654 0.826536 3 1.84608 3Z" fill="#0E4595"/>
<path d="M13.5317 19.0947L15.0714 10.0599H17.5341L15.9933 19.0947H13.5317ZM24.8902 10.2547C24.4023 10.0717 23.6377 9.87524 22.6831 9.87524C20.2497 9.87524 18.5356 11.1006 18.5211 12.8568C18.5073 14.1551 19.7448 14.8793 20.6788 15.3114C21.6374 15.7543 21.9596 16.0367 21.9551 16.4321C21.949 17.0377 21.1896 17.3144 20.4818 17.3144C19.4962 17.3144 18.9725 17.1775 18.1638 16.8401L17.8464 16.6966L17.5008 18.7191C18.076 18.9713 19.1396 19.1898 20.244 19.2011C22.8326 19.2011 24.513 17.9898 24.5322 16.1143C24.5414 15.0866 23.8853 14.3044 22.4646 13.6596C21.6038 13.2417 21.0767 12.9628 21.0823 12.5396C21.0823 12.1641 21.5285 11.7624 22.4925 11.7624C23.2978 11.75 23.8812 11.9256 24.3357 12.1086L24.5564 12.2129L24.8902 10.2547ZM31.2273 10.0598H29.3244C28.7349 10.0598 28.2937 10.2207 28.0348 10.809L24.3776 19.0887H26.9635C26.9635 19.0887 27.3863 17.9754 27.4819 17.731C27.7646 17.731 30.2766 17.7349 30.6358 17.7349C30.7095 18.0512 30.9353 19.0887 30.9353 19.0887H33.2205L31.2273 10.0595V10.0598ZM28.2081 15.8939C28.4118 15.3733 29.1893 13.3683 29.1893 13.3683C29.1747 13.3924 29.3914 12.8452 29.5158 12.506L29.6822 13.285C29.6822 13.285 30.1538 15.4416 30.2523 15.8939H28.2081ZM11.4411 10.0598L9.03014 16.2211L8.77321 14.969C8.32438 13.5257 6.92598 11.962 5.36267 11.1791L7.56717 19.0803L10.1727 19.0773L14.0497 10.0597H11.4411" fill="white"/>
<path d="M6.78059 10.0595H2.80963L2.7782 10.2475C5.86752 10.9953 7.91168 12.8026 8.76042 14.9739L7.89691 10.8221C7.74784 10.25 7.31554 10.0793 6.78068 10.0593" fill="#F2AE14"/>
</g>
<path d="M69.1322 30.3078V28.2919C69.1322 27.5195 68.6604 27.0156 67.8559 27.0156C67.4482 27.0156 67.0192 27.1548 66.708 27.5838C66.4717 27.219 66.1398 27.0156 65.6358 27.0156C65.3031 27.0156 64.9605 27.1119 64.6921 27.4874V27.0798H63.9946V30.3078H64.7028V28.5275C64.7028 27.9593 65.0033 27.6908 65.4752 27.6908C65.947 27.6908 66.1833 27.9914 66.1833 28.5275V30.3078H66.8915V28.5275C66.8915 27.9593 67.2242 27.6908 67.6639 27.6908C68.1358 27.6908 68.3721 27.9914 68.3721 28.5275V30.3078H69.1322ZM79.5887 27.0798H78.4408V26.104H77.7326V27.0798H77.0895V27.723H77.7326V29.2028C77.7326 29.943 78.0332 30.3828 78.8369 30.3828C79.1375 30.3828 79.4801 30.2864 79.7057 30.1465L79.5023 29.5461C79.2988 29.6853 79.0625 29.7174 78.9019 29.7174C78.5693 29.7174 78.4301 29.514 78.4301 29.1813V27.7337H79.578V27.0798H79.5887ZM85.5622 27.0156C85.1545 27.0156 84.8869 27.219 84.7255 27.4874V27.0798H84.0174V30.3078H84.7255V28.4954C84.7255 27.9593 84.9618 27.6587 85.4008 27.6587C85.54 27.6587 85.7013 27.6908 85.8405 27.723L86.044 27.0477C85.9055 27.0156 85.7013 27.0156 85.5622 27.0156ZM76.5213 27.3482C76.1886 27.1119 75.7167 27.0156 75.2128 27.0156C74.4083 27.0156 73.8722 27.4232 73.8722 28.0556C73.8722 28.5917 74.2798 28.8923 74.9765 28.9993L75.3091 29.0315C75.6739 29.0957 75.8773 29.2028 75.8773 29.3641C75.8773 29.6004 75.6089 29.7717 75.1371 29.7717C74.6652 29.7717 74.3004 29.6004 74.0649 29.4391L73.7322 29.9752C74.097 30.2436 74.601 30.3828 75.1049 30.3828C76.0486 30.3828 76.5847 29.943 76.5847 29.3427C76.5847 28.7745 76.145 28.4739 75.4804 28.3669L75.1478 28.3348C74.8472 28.3026 74.6117 28.2384 74.6117 28.0342C74.6117 27.7979 74.848 27.6694 75.212 27.6694C75.6196 27.6694 76.0165 27.8407 76.22 27.9379L76.5213 27.3482ZM95.2783 27.0156C94.8707 27.0156 94.6031 27.219 94.4417 27.4874V27.0798H93.7335V30.3078H94.4417V28.4954C94.4417 27.9593 94.678 27.6587 95.117 27.6587C95.2562 27.6587 95.4175 27.6908 95.5567 27.723L95.7601 27.0477C95.611 27.0156 95.4068 27.0156 95.2783 27.0156ZM86.2696 28.6888C86.2696 29.6647 86.9448 30.3728 87.9857 30.3728C88.4575 30.3728 88.7902 30.2765 89.1336 30.008L88.8009 29.4398C88.5325 29.6433 88.2648 29.7404 87.9642 29.7404C87.396 29.7404 86.9884 29.3328 86.9884 28.7003C86.9884 28.1 87.396 27.6924 87.9642 27.6603C88.2648 27.6603 88.5325 27.7566 88.8009 27.9608L89.1336 27.3926C88.8009 27.1242 88.4583 27.0278 87.9857 27.0278C86.9456 27.0156 86.2696 27.7237 86.2696 28.6888ZM92.7906 28.6888V27.0798H92.0824V27.4874C91.8461 27.1869 91.5142 27.0156 91.0745 27.0156C90.1629 27.0156 89.4655 27.7237 89.4655 28.6995C89.4655 29.6754 90.1736 30.3835 91.0745 30.3835C91.5463 30.3835 91.879 30.2122 92.0824 29.9117V30.3193H92.7906V28.6888ZM90.2057 28.6888C90.2057 28.1206 90.5705 27.6488 91.1816 27.6488C91.7498 27.6488 92.1574 28.0885 92.1574 28.6888C92.1574 29.2571 91.7498 29.7289 91.1816 29.7289C90.5705 29.6968 90.2057 29.2678 90.2057 28.6888ZM81.7652 27.0156C80.8215 27.0156 80.1561 27.6908 80.1561 28.6995C80.1561 29.7075 80.8314 30.3835 81.808 30.3835C82.2798 30.3835 82.7517 30.2443 83.1165 29.9438L82.7838 29.4398C82.5154 29.6433 82.1835 29.7725 81.8401 29.7725C81.4004 29.7725 80.9714 29.5691 80.8643 29.0001H83.245V28.7317C83.2778 27.6801 82.6768 27.0156 81.7652 27.0156ZM81.7652 27.6159C82.2049 27.6159 82.5054 27.8843 82.5697 28.3883H80.8857C80.9614 27.9593 81.2612 27.6159 81.7652 27.6159ZM99.2788 28.6888V25.8042H98.5706V27.4882C98.3343 27.1876 98.0024 27.0163 97.5626 27.0163C96.6511 27.0163 95.9536 27.7245 95.9536 28.7003C95.9536 29.6761 96.6618 30.3843 97.5626 30.3843C98.0345 30.3843 98.3672 30.213 98.5706 29.9124V30.3201H99.2788V28.6888ZM96.6832 28.6888C96.6832 28.1206 97.048 27.6488 97.659 27.6488C98.2272 27.6488 98.6348 28.0885 98.6348 28.6888C98.6348 29.2571 98.2272 29.7289 97.659 29.7289C97.0587 29.6968 96.6832 29.2678 96.6832 28.6888ZM73.0998 28.6888V27.0798H72.3916V27.4874C72.1553 27.1869 71.8234 27.0156 71.3837 27.0156C70.4721 27.0156 69.7746 27.7237 69.7746 28.6995C69.7746 29.6754 70.4828 30.3835 71.3837 30.3835C71.8555 30.3835 72.1882 30.2122 72.3916 29.9117V30.3193H73.0998V28.6888ZM70.4835 28.6888C70.4835 28.1206 70.8483 27.6488 71.4594 27.6488C72.0276 27.6488 72.4352 28.0885 72.4352 28.6888C72.4352 29.2571 72.0276 29.7289 71.4594 29.7289C70.8476 29.6968 70.4835 29.2678 70.4835 28.6888Z" fill="black"/>
<path d="M86.8806 2.58472H76.2957V21.5995H86.8806V2.58472Z" fill="#FF5F00"/>
<path d="M76.9608 12.0976C76.9608 8.23714 78.7733 4.80494 81.5616 2.58486C79.5128 0.975823 76.9287 0 74.0976 0C67.416 0 62 5.40527 62 12.0976C62 18.7792 67.4053 24.1952 74.0976 24.1952C76.918 24.1952 79.5029 23.2194 81.5616 21.6104C78.7733 19.4224 76.9608 15.9588 76.9608 12.0976Z" fill="#EB001B"/>
<path d="M101.155 12.0976C101.155 18.7792 95.7501 24.1952 89.0577 24.1952C86.2373 24.1952 83.6525 23.2194 81.5938 21.6104C84.4142 19.3903 86.1945 15.9695 86.1945 12.0976C86.1945 8.23714 84.382 4.80494 81.5938 2.58486C83.6425 0.975823 86.2266 0 89.0577 0C95.7501 0.000764752 101.155 5.43815 101.155 12.0976Z" fill="#F79E1B"/>
<path d="M150.565 2.55298H140.11V21.3453H150.565V2.55298Z" fill="#6C6BBD"/>
<path d="M140.767 11.9492C140.767 8.13559 142.547 4.74576 145.333 2.55297C143.299 0.95339 140.735 0 137.949 0C131.35 0 126 5.34958 126 11.9492C126 18.5487 131.35 23.8983 137.949 23.8983C140.735 23.8983 143.299 22.9449 145.333 21.3453C142.557 19.1525 140.767 15.7627 140.767 11.9492Z" fill="#D32011"/>
<path d="M164.665 11.9492C164.665 18.5487 159.316 23.8983 152.716 23.8983C149.93 23.8983 147.366 22.9449 145.333 21.3453C148.108 19.1525 149.898 15.7627 149.898 11.9492C149.898 8.13559 148.119 4.74576 145.333 2.55297C147.366 0.95339 149.93 0 152.716 0C159.316 0 164.665 5.34958 164.665 11.9492Z" fill="#0099DF"/>
<path d="M154.093 26.6524C154.231 26.6524 154.432 26.6842 154.58 26.7371L154.368 27.3833C154.22 27.3197 154.072 27.2986 153.934 27.2986C153.479 27.2986 153.256 27.5952 153.256 28.1142V29.8939H152.567V26.7265H153.256V27.1079C153.436 26.8325 153.701 26.6524 154.093 26.6524ZM151.551 27.3621H150.417V28.7922C150.417 29.11 150.534 29.3219 150.873 29.3219C151.053 29.3219 151.275 29.2583 151.487 29.1418L151.688 29.735C151.466 29.8833 151.127 29.9786 150.83 29.9786C150.015 29.9786 149.729 29.5443 149.729 28.8028V27.3515H149.082V26.7159H149.729V25.752H150.428V26.7159H151.551V27.3621ZM142.716 28.0401C142.79 27.5846 143.065 27.2668 143.563 27.2668C144.008 27.2668 144.294 27.5422 144.368 28.0401H142.716ZM145.078 28.3155C145.067 27.3303 144.464 26.6524 143.574 26.6524C142.642 26.6524 141.995 27.3303 141.995 28.3155C141.995 29.3219 142.673 29.9786 143.627 29.9786C144.104 29.9786 144.538 29.8621 144.93 29.5337L144.591 29.0253C144.326 29.2371 143.987 29.3536 143.669 29.3536C143.224 29.3536 142.822 29.1524 142.716 28.5803H145.067C145.067 28.4956 145.078 28.4109 145.078 28.3155ZM148.108 27.5422C147.917 27.4257 147.525 27.2668 147.123 27.2668C146.741 27.2668 146.519 27.4045 146.519 27.6375C146.519 27.8494 146.762 27.913 147.059 27.9448L147.387 27.9871C148.076 28.0825 148.5 28.3791 148.5 28.9405C148.5 29.5443 147.97 29.9786 147.048 29.9786C146.529 29.9786 146.053 29.8409 145.671 29.5655L146 29.0253C146.233 29.2053 146.582 29.3536 147.059 29.3536C147.525 29.3536 147.779 29.2159 147.779 28.9723C147.779 28.7922 147.599 28.6969 147.218 28.6439L146.89 28.6015C146.18 28.5062 145.798 28.1778 145.798 27.6693C145.798 27.0337 146.317 26.6524 147.123 26.6524C147.631 26.6524 148.087 26.7689 148.415 26.9808L148.108 27.5422ZM156.625 27.3092C156.487 27.3092 156.349 27.3303 156.233 27.3833C156.116 27.4363 156.01 27.4998 155.915 27.5952C155.83 27.6799 155.756 27.7964 155.703 27.913C155.65 28.0401 155.629 28.1778 155.629 28.3261C155.629 28.4744 155.65 28.6121 155.703 28.7392C155.756 28.8664 155.82 28.9723 155.915 29.057C156 29.1418 156.106 29.2159 156.233 29.2689C156.36 29.3219 156.487 29.3431 156.625 29.3431C156.762 29.3431 156.9 29.3219 157.017 29.2689C157.144 29.2159 157.25 29.1524 157.334 29.057C157.43 28.9723 157.493 28.8558 157.546 28.7392C157.599 28.6121 157.62 28.4744 157.62 28.3261C157.62 28.1778 157.599 28.0401 157.546 27.913C157.493 27.7859 157.43 27.6799 157.334 27.5952C157.25 27.5104 157.144 27.4363 157.017 27.3833C156.89 27.3303 156.762 27.3092 156.625 27.3092ZM156.625 26.6524C156.868 26.6524 157.101 26.6948 157.313 26.7795C157.525 26.8642 157.705 26.9808 157.854 27.1291C158.002 27.2774 158.129 27.4575 158.214 27.6587C158.298 27.86 158.341 28.0825 158.341 28.3261C158.341 28.5697 158.298 28.7922 158.214 28.9935C158.129 29.1948 158.012 29.3748 157.854 29.5231C157.705 29.6714 157.515 29.788 157.313 29.8727C157.101 29.9575 156.879 29.9998 156.625 29.9998C156.381 29.9998 156.148 29.9575 155.936 29.8727C155.724 29.788 155.544 29.6714 155.396 29.5231C155.248 29.3748 155.12 29.1948 155.036 28.9935C154.951 28.7922 154.909 28.5697 154.909 28.3261C154.909 28.0825 154.951 27.86 155.036 27.6587C155.12 27.4575 155.237 27.2774 155.396 27.1291C155.544 26.9808 155.724 26.8642 155.936 26.7795C156.148 26.6948 156.37 26.6524 156.625 26.6524ZM138.68 28.3155C138.68 27.7541 139.04 27.2986 139.644 27.2986C140.216 27.2986 140.597 27.7329 140.597 28.3155C140.597 28.8981 140.216 29.3325 139.644 29.3325C139.04 29.3325 138.68 28.877 138.68 28.3155ZM141.243 28.3155V26.7265H140.555V27.1079C140.332 26.8219 140.004 26.6418 139.548 26.6418C138.659 26.6418 137.959 27.3409 137.959 28.3049C137.959 29.2689 138.659 29.9681 139.548 29.9681C140.004 29.9681 140.332 29.788 140.555 29.502V29.8833H141.243V28.3155ZM137.356 29.9045V27.913C137.356 27.1609 136.879 26.663 136.106 26.6524C135.703 26.6418 135.279 26.7689 134.993 27.2138C134.771 26.8642 134.432 26.6524 133.945 26.6524C133.606 26.6524 133.277 26.7477 133.012 27.1185V26.7265H132.324V29.8939H133.023V28.1354C133.023 27.5846 133.33 27.288 133.796 27.288C134.252 27.288 134.485 27.5846 134.485 28.1248V29.8939H135.184V28.1354C135.184 27.5846 135.502 27.288 135.957 27.288C136.434 27.288 136.656 27.5846 136.656 28.1248V29.8939H137.356V29.9045Z" fill="#110F0D"/>
<path d="M188 2.28683V28.5626C188 29.8203 189.029 30.8494 190.287 30.8494H205.986C217.855 30.8494 223 24.2061 223 15.3904C223 6.62039 217.855 0 205.986 0H190.287C189.029 0 188 1.02908 188 2.28683Z" fill="white"/>
<path d="M205.986 28.7568H192.334C191.122 28.7568 190.138 27.7735 190.138 26.5615V4.29912C190.138 3.0871 191.122 2.10376 192.334 2.10376H205.986C218.941 2.10376 220.873 10.4393 220.873 15.4017C220.873 24.0116 215.579 28.7568 205.986 28.7568ZM190.87 4.29912V26.5615C190.87 27.3733 191.522 28.025 192.334 28.025H205.986C215.11 28.025 220.141 23.5428 220.141 15.4017C220.141 4.47063 211.269 2.83555 205.986 2.83555H192.334C191.522 2.83555 190.87 3.48729 190.87 4.29912Z" fill="black"/>
<path d="M198.508 6.44868V25.8639H206.958C214.63 25.8639 217.957 21.5304 217.957 15.4016C217.957 9.53591 214.63 4.98511 206.958 4.98511H199.972C199.16 4.98511 198.508 5.64829 198.508 6.44868Z" fill="#CC0066"/>
<path d="M201.481 12.7832C201.778 12.7832 202.053 12.8289 202.315 12.9204C202.578 13.0118 202.796 13.1605 202.99 13.3434C203.173 13.5378 203.322 13.7779 203.436 14.0524C203.539 14.3382 203.596 14.6698 203.596 15.0586C203.596 15.4016 203.55 15.7103 203.47 15.9962C203.379 16.282 203.253 16.5336 203.082 16.7394C202.91 16.9452 202.693 17.1053 202.43 17.2311C202.167 17.3454 201.858 17.414 201.504 17.414H199.503V12.7717H201.481V12.7832ZM201.412 16.5679C201.561 16.5679 201.698 16.545 201.847 16.4993C201.984 16.4535 202.11 16.3735 202.213 16.2592C202.315 16.1448 202.407 16.0076 202.476 15.8247C202.544 15.6417 202.578 15.4359 202.578 15.1729C202.578 14.9442 202.556 14.727 202.51 14.544C202.464 14.3611 202.384 14.1896 202.281 14.0638C202.178 13.938 202.041 13.8237 201.87 13.7551C201.698 13.6865 201.492 13.6522 201.241 13.6522H200.509V16.5793H201.412V16.5679ZM207.724 12.7832V13.6407H205.277V14.6355H207.529V15.4245H205.277V16.5564H207.781V17.414H204.259V12.7717H207.724V12.7832ZM212.961 17.4254H211.897L211.543 16.3964H209.805L209.439 17.4254H208.41L210.159 12.7832H211.223L212.961 17.4254ZM211.28 15.6303L210.697 13.9266H210.685L210.079 15.6303H211.28ZM214.619 12.7832V16.5679H216.883V17.4254H213.601V12.7832H214.619Z" fill="white"/>
<path d="M196.301 25.8641C194.506 25.8641 193.065 24.4119 193.065 22.6282V20.1012C193.065 19.2094 193.786 18.4776 194.689 18.4776C195.581 18.4776 196.313 19.1979 196.313 20.1012V25.8641H196.301ZM194.689 17.2427C193.507 17.2427 192.551 16.2868 192.551 15.1045C192.551 13.9222 193.507 12.9663 194.689 12.9663C195.871 12.9663 196.827 13.9222 196.827 15.1045C196.827 16.2868 195.871 17.2427 194.689 17.2427Z" fill="black"/>
<path d="M295.584 2H258.416C255.977 2 254 3.97711 254 6.416V23.1391C254 25.578 255.977 27.5551 258.416 27.5551H295.584C298.023 27.5551 300 25.578 300 23.1391V6.416C300 3.97711 298.023 2 295.584 2Z" fill="#FFB3C7"/>
<path d="M295.701 16.9709C295.557 16.9712 295.415 16.9998 295.283 17.0552C295.15 17.1105 295.03 17.1915 294.928 17.2935C294.827 17.3955 294.747 17.5165 294.693 17.6495C294.638 17.7825 294.611 17.9249 294.612 18.0686C294.611 18.2123 294.638 18.3548 294.692 18.4879C294.746 18.621 294.826 18.7421 294.927 18.8443C295.028 18.9465 295.148 19.0277 295.281 19.0834C295.413 19.139 295.555 19.1679 295.699 19.1684C295.991 19.1684 296.27 19.0526 296.477 18.8463C296.683 18.64 296.799 18.3603 296.799 18.0686C296.799 17.7769 296.683 17.4972 296.477 17.2909C296.27 17.0847 295.991 16.9688 295.699 16.9688L295.701 16.9709ZM292.115 16.122C292.129 15.8079 292.048 15.4969 291.884 15.229C291.719 14.9612 291.478 14.7487 291.192 14.6189C290.906 14.4891 290.587 14.4481 290.277 14.501C289.967 14.5539 289.681 14.6983 289.453 14.9157C289.226 15.1331 289.07 15.4135 289.003 15.7208C288.937 16.0281 288.964 16.3482 289.081 16.6399C289.199 16.9316 289.4 17.1816 289.661 17.3576C289.921 17.5336 290.229 17.6275 290.543 17.6274C290.951 17.6358 291.346 17.4821 291.64 17.1998C291.935 16.9176 292.106 16.53 292.115 16.122ZM292.115 13.1947H293.851V19.0492H292.115V18.6729C291.609 19.0227 291.008 19.2095 290.392 19.2082C289.587 19.1872 288.823 18.8528 288.261 18.2761C287.699 17.6994 287.384 16.9261 287.384 16.1209C287.384 15.3158 287.699 14.5425 288.261 13.9658C288.823 13.3891 289.587 13.0547 290.392 13.0337C291.008 13.0331 291.609 13.2206 292.115 13.5711V13.1947ZM278.221 13.9579V13.1968H276.442V19.0513H278.225V16.3143C278.225 15.3922 279.214 14.8988 279.898 14.8988H279.919V13.1968C279.598 13.1893 279.28 13.2538 278.987 13.3855C278.694 13.5172 278.435 13.7128 278.227 13.9579H278.221ZM273.799 16.122C273.813 15.8079 273.732 15.4969 273.568 15.229C273.403 14.9612 273.162 14.7487 272.876 14.6189C272.589 14.4891 272.271 14.4481 271.961 14.501C271.651 14.5539 271.364 14.6983 271.137 14.9157C270.91 15.1331 270.753 15.4135 270.687 15.7208C270.621 16.0281 270.648 16.3482 270.765 16.6399C270.882 16.9316 271.084 17.1816 271.344 17.3576C271.605 17.5336 271.912 17.6275 272.226 17.6274C272.635 17.6358 273.029 17.4821 273.324 17.1998C273.619 16.9176 273.79 16.53 273.799 16.122ZM273.799 13.1947H275.536V19.0492H273.801V18.6729C273.294 19.0218 272.693 19.2084 272.078 19.2082C271.273 19.1872 270.508 18.8528 269.946 18.2761C269.385 17.6994 269.07 16.9261 269.07 16.1209C269.07 15.3158 269.385 14.5425 269.946 13.9658C270.508 13.3891 271.273 13.0547 272.078 13.0337C272.694 13.0331 273.295 13.2206 273.801 13.5711L273.799 13.1947ZM284.253 13.0379C283.559 13.0379 282.903 13.247 282.464 13.8554V13.1968H280.734V19.0513H282.484V15.9735C282.484 15.0828 283.076 14.6458 283.789 14.6458C284.55 14.6458 284.991 15.1058 284.991 15.961V19.0472H286.725V15.3274C286.727 13.9642 285.652 13.0379 284.255 13.0379H284.253ZM266.495 19.0472H268.312V10.5957H266.495V19.0472ZM258.51 19.0472H260.436V10.5957H258.512V19.0492L258.51 19.0472ZM265.243 10.5957C265.248 11.4874 265.077 12.3714 264.739 13.1968C264.402 14.0221 263.904 14.7725 263.275 15.4048L265.935 19.0639H263.558L260.668 15.0912L261.414 14.5266C262.023 14.069 262.516 13.475 262.854 12.7923C263.192 12.1097 263.365 11.3573 263.359 10.5957H265.241H265.243Z" fill="#0A0B09"/>
<defs>
<clipPath id="clip0_302_1088">
<rect width="35.9985" height="23.076" fill="white" transform="translate(0 3)"/>
</clipPath>
</defs>
</svg>
