<svg width="161" height="161" viewBox="0 0 161 161" fill="none" xmlns="http://www.w3.org/2000/svg">
<circle cx="80.5" cy="80.5" r="80.5" fill="#1878FF"/>
<circle cx="81.133" cy="80.499" r="72.5549" fill="#1878FF" stroke="white" stroke-width="2"/>
<path d="M28.6394 121.015C28.1734 120.539 27.7349 120.038 27.3262 119.512C26.9474 119.007 26.5875 118.502 26.2529 117.978C25.9182 117.454 25.6215 116.942 25.3121 116.431C25.0028 115.92 24.7186 115.408 24.4156 114.903C23.2022 112.854 22.1102 110.735 21.1451 108.558C20.1747 106.36 19.3315 104.109 18.6196 101.815C18.3733 101.038 18.1587 100.255 17.9566 99.4723C17.7546 98.6894 17.5589 97.9065 17.3252 97.1363C16.7318 94.9959 16.2204 92.824 15.8163 90.6331C15.4059 88.4246 15.1234 86.1943 14.9702 83.9532C14.834 81.8662 14.8045 79.7737 14.8818 77.6837C14.9513 75.6443 15.1218 73.5924 15.3869 71.5467C15.4943 70.6818 15.7468 70.1198 16.1004 69.9367C16.978 69.4758 17.9503 69.0781 18.8911 68.674C19.8184 68.2995 20.7807 68.0182 21.7638 67.8343H21.9343C23.2181 67.6285 24.5171 67.5334 25.8172 67.5502C27.1305 67.5502 29.5676 67.4681 29.9022 67.8027C30.1358 68.0426 30.06 69.6084 30.0916 70.505C30.1232 71.4015 30.1611 72.3233 30.18 73.2451C30.1989 74.1669 30.2179 75.1392 30.2431 76.0674C30.2684 76.9955 30.3063 77.9615 30.3757 78.9717C27.0853 78.8375 23.7911 79.1175 20.5705 79.8051C20.6827 83.3305 21.0605 86.8425 21.7007 90.3111C22.9929 90.1259 24.2998 89.9786 25.6215 89.8692C26.9432 89.7597 28.3069 89.7008 29.7128 89.6924C29.8264 90.5574 29.978 91.416 30.1674 92.2558C30.3568 93.0955 30.5588 93.9289 30.7609 94.7307C30.9629 95.5326 31.1776 96.3534 31.3922 97.1678C31.6069 97.9823 31.7711 98.8094 31.91 99.6302C29.2293 99.7161 26.5582 99.9925 23.9168 100.457C24.9508 104.034 26.29 107.515 27.9197 110.862C28.0112 110.892 28.0999 110.931 28.1849 110.976C28.2541 111.014 28.3285 111.042 28.4058 111.058L30.8935 110.938C31.7344 110.884 32.578 110.884 33.4189 110.938L34.1261 110.989C34.349 111.001 34.5724 111.001 34.7953 110.989C34.9755 110.972 35.1533 110.936 35.3257 110.881C35.5045 110.823 35.6714 110.734 35.8182 110.616L35.9192 110.559H36.0391C36.3801 110.559 36.8157 111.115 37.3587 112.239C37.9901 113.501 38.5709 114.764 39.1266 116.027C39.6822 117.29 40.1936 118.483 40.6734 119.714L39.84 119.809L39.4233 119.859H39.2844C38.653 119.941 38.2868 119.979 37.6239 120.074L36.942 120.162C36.7147 120.194 36.4748 120.213 36.2475 120.232C35.4267 120.308 34.5554 120.434 33.722 120.535C32.8886 120.636 31.9984 120.718 31.1649 120.857C31.0851 120.863 31.0049 120.863 30.925 120.857L30.6725 120.888C30.6048 120.904 30.5391 120.927 30.4767 120.958C30.4177 120.991 30.3644 121.034 30.3189 121.084C30.2822 121.136 30.2348 121.179 30.18 121.21C30.1249 121.242 30.0653 121.266 30.0032 121.28C29.7912 121.312 29.5747 121.292 29.3718 121.223L28.6394 121.015Z" fill="white"/>
<path d="M40.6477 80.9931C40.332 80.6837 38.4695 80.7026 37.4214 80.5637C36.3733 80.4248 34.4666 80.4817 34.2077 80.2418C34.1384 79.9707 34.0941 79.6938 34.0751 79.4146C34.012 79.0863 33.9615 78.7328 33.9046 78.3603C33.8478 77.9878 33.7973 77.6089 33.7468 77.2364C33.6963 76.8639 33.6584 76.5482 33.6332 76.2767C33.5321 75.1971 33.4501 74.149 33.3932 73.1199C33.3364 72.0907 33.2922 71.0553 33.2543 70.0261C33.2108 69.6748 33.2387 69.3183 33.3364 68.9781C33.4122 68.8202 33.5889 68.7571 33.8604 68.7887C34.5549 68.896 35.2495 69.0096 35.9503 69.1359L38.0528 69.5147L38.7725 69.6473C39.0124 69.6915 39.2524 69.7231 39.4986 69.7483L40.5467 69.963C41.096 70.0767 41.8094 70.2282 42.6176 70.4302L45.2251 71.0616C46.1406 71.2889 47.0372 71.5288 47.9337 71.7751L50.2888 72.4064L51.6841 72.7916C51.9177 72.8567 52.1441 72.9456 52.3597 73.0567C52.587 73.1704 52.8206 73.2903 53.0479 73.4166C53.5277 73.6818 53.8118 74.3005 53.8876 75.2665C53.9444 75.9863 54.0202 76.725 54.1212 77.47C54.2222 78.215 54.2853 78.979 54.3295 79.724C54.3674 80.2607 54.4306 80.8984 54.5126 81.6181C54.599 82.3282 54.6369 83.0433 54.6263 83.7585C53.8907 83.6057 53.1654 83.4075 52.4544 83.165C51.7162 82.9201 50.9634 82.7219 50.2004 82.5715C49.7732 82.487 49.3408 82.4321 48.9061 82.4074C48.493 82.3871 48.0791 82.421 47.6749 82.5084C48.1863 89.0873 48.9376 95.723 50.0046 102.239C50.8488 107.877 51.9826 113.468 53.4014 118.989L53.1173 119.096C53.022 119.131 52.9219 119.15 52.8206 119.153H52.7701C52.2713 119.153 51.7662 119.115 51.2674 119.077C50.7686 119.04 50.2635 119.008 49.7521 118.983H49.5122C49.3881 118.975 49.2653 118.954 49.146 118.92C49.0398 118.886 48.9455 118.822 48.8745 118.737C48.7681 118.609 48.6809 118.466 48.6156 118.314C48.5272 118.124 48.4199 117.865 48.3062 117.55C47.7317 115.984 47.2077 114.317 46.7152 112.606C46.2227 110.895 45.7492 109.102 45.3009 107.239C44.7769 105.086 44.2844 102.851 43.8424 100.553C43.4005 98.2548 42.9711 95.8682 42.5797 93.3996C42.3398 91.979 42.1125 90.5584 41.8915 89.1504C41.6705 87.7425 41.4432 86.3092 41.2286 84.8571C41.1781 84.472 41.1275 84.131 41.0833 83.8343C41.0391 83.5375 40.9949 83.2597 40.9444 82.9756C40.8939 82.6915 40.8497 82.4073 40.8055 82.098C40.7976 81.7247 40.7446 81.3537 40.6477 80.9931Z" fill="white"/>
<path d="M72.7123 103.969C71.4496 103.758 70.2016 103.548 68.9683 103.337L65.1801 102.668C65.2243 103.173 65.2558 103.691 65.2811 104.215C65.3063 104.739 65.3379 105.257 65.3821 105.762C65.42 106.166 65.4579 106.734 65.4831 107.429C65.5084 108.123 65.5147 108.887 65.5147 109.702C65.5147 110.516 65.5147 111.343 65.4705 112.177C65.4263 113.01 65.4137 113.793 65.3695 114.5C65.3253 115.207 65.2811 115.832 65.2306 116.394C65.1801 116.956 65.1232 117.322 65.0854 117.568C65.0475 117.815 65.0285 117.922 64.997 118.143C64.9667 118.352 64.9667 118.565 64.997 118.774L64.7381 118.844C64.6521 118.853 64.5653 118.853 64.4792 118.844C63.9426 118.844 63.3933 118.787 62.8503 118.768C62.3073 118.749 61.758 118.718 61.215 118.686C61.0607 118.666 60.914 118.607 60.7891 118.514C60.6642 118.421 60.5652 118.298 60.5016 118.156C60.2935 117.753 60.2058 117.3 60.249 116.849C60.249 116.337 60.2932 115.794 60.249 115.245C60.2048 114.696 60.1922 114.121 60.148 113.534C60.1038 112.947 60.0533 112.353 59.9965 111.754C59.9397 111.154 59.9081 110.548 59.8829 109.941C59.8113 108.334 59.725 106.669 59.624 104.947C59.523 103.226 59.3399 101.454 59.0747 99.6312C58.8474 98.0717 58.6769 96.4743 58.5633 94.9401C58.4496 93.4058 58.2855 91.7832 58.0771 90.1795C57.7109 87.3636 57.3637 84.5793 57.0669 81.858C56.7702 79.1368 56.4356 76.5798 56.1641 74.1111C56.9154 74.231 57.6478 74.3573 58.3549 74.4899C59.0621 74.6225 59.8197 74.7046 60.4763 74.8498C60.7169 74.9065 60.95 74.9913 61.1708 75.1023C61.3848 75.201 61.5744 75.3454 61.7265 75.5254C61.9105 75.7583 62.0536 76.0209 62.1495 76.3019C62.2996 76.7324 62.4075 77.1765 62.4715 77.6278C62.6167 78.5244 62.7872 79.4525 62.9576 80.3869C63.1281 81.3214 63.3049 82.2811 63.488 83.2534C63.7974 84.876 64.0373 86.5428 64.2204 88.197C64.4035 89.8512 64.6308 91.5749 64.9023 93.3616C64.9465 93.3616 65.1232 93.3616 65.4452 93.4058L66.6449 93.4753L68.2296 93.5384L69.9091 93.5889L71.4117 93.6395L72.4724 93.6773C72.3398 92.1431 72.1631 90.6341 71.961 89.163C71.759 87.6919 71.5064 86.1766 71.2097 84.7434C70.995 83.6953 70.7551 82.6599 70.5215 81.656C70.2879 80.6521 70.0353 79.6545 69.7891 78.6822C69.6598 78.3157 69.6019 77.9278 69.6186 77.5395C69.6628 77.3753 69.8522 77.3311 70.1805 77.3816C70.3573 77.3816 70.5467 77.4321 70.7235 77.47L71.2476 77.5836L71.7779 77.6847L72.2577 77.7794C72.3733 77.7886 72.4894 77.7886 72.605 77.7794H73.1417H73.7225C73.8737 77.7647 74.0259 77.7647 74.1771 77.7794C74.2106 77.7742 74.2447 77.7742 74.2781 77.7794H74.335C74.6583 78.0235 74.9182 78.3418 75.0926 78.7075C75.2915 79.114 75.4563 79.5364 75.5851 79.9702C76.1211 81.6748 76.5638 83.4073 76.911 85.1601C77.2626 86.9857 77.5072 88.8304 77.6434 90.6846C77.7065 91.5812 77.7696 92.4651 77.8328 93.3364C77.8961 94.2401 78.0057 95.1399 78.1611 96.0323C78.2385 96.46 78.2871 96.8925 78.3063 97.3267C78.3063 97.7686 78.3442 98.2043 78.3694 98.6399C78.5271 101.473 78.4722 104.314 78.2053 107.138C78.1232 108.155 78.0096 109.14 77.8643 110.087C77.7191 111.034 77.5676 111.981 77.3971 112.827C77.2267 113.673 77.0246 114.633 76.81 115.466C76.5953 116.299 76.3554 117.108 76.0965 117.878C76.0021 118.221 75.834 118.54 75.604 118.812C75.5109 118.893 75.4026 118.954 75.2855 118.992C75.1683 119.03 75.0448 119.044 74.9221 119.033C74.7217 119.021 74.5229 118.989 74.3287 118.939C74.1332 118.891 73.935 118.855 73.7352 118.831L73.2743 118.787L72.8071 118.749C72.5549 118.73 72.3016 118.73 72.0494 118.749C72.0012 118.755 71.9524 118.755 71.9042 118.749H71.7779C71.6475 118.758 71.5183 118.718 71.4164 118.636C71.3145 118.554 71.2474 118.437 71.2286 118.307C71.2088 117.827 71.295 117.349 71.4812 116.906C71.7835 115.985 72.0178 115.044 72.182 114.09C72.3461 113.111 72.4724 112.082 72.5545 110.996C72.6366 109.91 72.6808 108.786 72.6871 107.612C72.6934 106.437 72.7186 105.231 72.7123 103.969Z" fill="white"/>
<path d="M78.9141 119.652C78.9835 119.337 79.0403 119.053 79.0782 118.813L79.1919 118.105C79.3687 117.746 79.5518 117.367 79.7475 116.975C79.9413 116.567 80.1038 116.145 80.2336 115.713C80.6125 114.494 80.9786 113.187 81.3322 111.842C81.6858 110.497 82.0204 109.052 82.3045 107.549C82.5225 106.376 82.6658 105.191 82.7339 104.001C82.797 102.788 82.8538 101.532 82.8854 100.25C82.939 97.8081 82.7997 95.3655 82.4687 92.9453C82.1424 90.5608 81.6765 88.1975 81.0733 85.8676C80.7513 84.6364 80.442 83.4494 80.1768 82.313C79.9116 81.1765 79.0845 79.3834 79.2171 78.9604C79.2171 78.8909 79.5076 78.7836 79.6654 78.7583C79.8281 78.7313 79.9931 78.7207 80.1579 78.7267C80.4232 78.7345 80.6874 78.7663 80.9471 78.8215C81.2005 78.8747 81.4584 78.9043 81.7174 78.9098H81.8941C81.9886 78.8999 82.0838 78.8999 82.1782 78.9098H82.4876C82.7654 78.9098 83.0496 78.9098 83.3337 78.9098C83.6178 78.9098 83.8956 78.9098 84.1671 78.9098H84.3944C84.4696 78.9091 84.5442 78.8963 84.6154 78.872H84.7542C84.8817 78.8532 85.0119 78.8685 85.1317 78.9161C85.2514 78.9638 85.3564 79.0422 85.4361 79.1435C85.6574 79.5145 85.8213 79.9168 85.9223 80.3368C86.0887 80.8845 86.2868 81.4221 86.5158 81.9467C86.7494 82.4897 86.9578 83.0517 87.1472 83.6136C87.3366 84.1755 87.5765 84.8763 87.7785 85.5077C87.9806 86.1391 88.1511 86.8083 88.2963 87.4713C88.6958 89.2655 88.9972 91.0803 89.1991 92.9074C89.406 94.7626 89.5051 96.6283 89.4959 98.495C89.4863 99.8671 89.3957 101.238 89.2244 102.599C89.0539 103.931 88.8329 105.232 88.593 106.495C88.4225 107.353 88.2205 108.193 87.9616 109.02C87.7028 109.847 87.4944 110.63 87.2482 111.413C86.882 112.587 86.4779 113.705 86.0549 114.753C85.6431 115.788 85.1665 116.796 84.628 117.771L84.3754 118.238C84.287 118.396 84.1923 118.547 84.0913 118.699C83.841 119.102 83.5252 119.461 83.1569 119.76C82.9026 119.93 82.5965 120.006 82.2919 119.974L81.5658 119.93L80.8587 119.867L78.9141 119.652Z" fill="white"/>
<path d="M111.915 91.8261H111.542C111.425 91.8322 111.309 91.8512 111.195 91.8829H111.151L109.592 92.3817C109.074 92.5395 108.531 92.7353 108.019 92.8868C107.89 92.9062 107.758 92.9062 107.628 92.8868C107.417 92.8844 107.205 92.8992 106.997 92.931C106.884 92.943 106.771 92.9196 106.672 92.8642C106.574 92.8087 106.495 92.7239 106.447 92.6216C106.276 92.2635 106.177 91.8752 106.157 91.4788C106.106 90.9485 106.037 90.456 105.967 89.9888C105.815 88.9595 105.527 87.9552 105.109 87.0024C104.989 86.6689 104.803 86.3635 104.561 86.105C104.318 85.8466 104.026 85.6406 103.701 85.4997C103.371 85.3889 103.033 85.3045 102.691 85.2472C102.372 85.1845 102.044 85.1952 101.731 85.2788C101.391 85.4021 101.085 85.6035 100.837 85.8667C100.589 86.1298 100.407 86.4475 100.304 86.794C99.9232 87.7625 99.6624 88.7739 99.5274 89.8057C99.357 90.9611 99.2118 92.1481 99.0729 93.3666C98.934 94.5852 98.8771 95.8921 98.8519 97.2622C98.8304 98.5905 98.7144 99.9155 98.5046 101.227C98.3026 102.49 98.0627 103.753 97.8038 105.015C97.646 105.779 97.4944 106.531 97.3366 107.257C97.1787 107.983 97.0209 108.696 96.8378 109.391C96.7999 109.549 96.7557 109.839 96.6926 110.262C96.6277 110.723 96.5876 111.186 96.5726 111.651C96.5373 112.124 96.5373 112.599 96.5726 113.072C96.5826 113.444 96.726 113.8 96.9767 114.076C97.0658 114.299 97.2214 114.49 97.4224 114.622C97.6234 114.754 97.8601 114.821 98.1005 114.814C98.9844 114.814 100.108 114.259 101.422 112.971C101.762 112.63 102.053 112.301 102.305 112.011C102.553 111.718 102.777 111.405 102.975 111.077C103.174 110.742 103.345 110.392 103.486 110.029C103.649 109.618 103.782 109.196 103.884 108.766C103.946 108.482 104.055 108.211 104.206 107.964C104.303 107.767 104.46 107.606 104.654 107.503L104.844 107.44C104.907 107.44 104.97 107.396 105.02 107.383C105.039 107.377 105.059 107.378 105.077 107.385C105.096 107.392 105.111 107.404 105.121 107.421C105.151 107.447 105.189 107.461 105.229 107.459C105.562 107.226 105.949 107.083 106.353 107.042C106.759 107 107.17 107.054 107.552 107.2C107.931 107.348 108.341 107.402 108.745 107.358H108.802C109.061 107.307 109.2 107.509 109.194 107.951C109.17 108.506 109.032 109.049 108.79 109.549C108.132 111.052 107.294 112.47 106.296 113.773C105.369 114.972 104.338 116.088 103.215 117.106C102.261 117.979 101.23 118.764 100.134 119.449C99.1486 120.08 98.1447 120.655 97.1345 121.229C96.8182 121.379 96.4824 121.483 96.137 121.538C95.7329 121.608 95.3288 121.658 94.9184 121.69C94.508 121.722 94.1355 121.728 93.7883 121.69C93.5465 121.704 93.304 121.704 93.0622 121.69C92.7683 121.659 92.4771 121.606 92.1909 121.532C91.9724 121.47 91.7608 121.385 91.5595 121.28C91.3743 121.175 91.2044 121.045 91.0544 120.894C90.8821 120.711 90.7238 120.515 90.5809 120.307C90.149 119.603 89.9833 118.768 90.1137 117.952C90.233 116.638 90.4226 115.332 90.6819 114.038C91.0481 112.043 91.3575 109.864 91.5974 107.516C91.8373 105.167 92.1151 102.604 92.3866 99.7877C92.6328 97.2622 92.7654 94.8314 92.8728 92.6342C92.9801 90.4371 93.0937 88.423 93.2831 86.5983C93.4406 84.9361 93.7213 83.2879 94.1229 81.6673C94.4801 80.2514 95.0125 78.8855 95.7076 77.6013C95.737 77.5396 95.7802 77.4856 95.8339 77.4434C96.4274 77.1025 97.0083 76.7489 97.5765 76.3764C98.1374 76.0061 98.7364 75.697 99.3633 75.4546C100.479 75.0358 101.701 74.9936 102.842 75.3346C104.36 75.7963 105.726 76.6552 106.801 77.8222C107.548 78.5749 108.218 79.3997 108.802 80.2846C109.386 81.1671 109.879 82.1063 110.273 83.0879C110.714 84.1844 111.061 85.3166 111.309 86.4721C111.614 87.8684 111.825 89.2838 111.94 90.7086C111.959 90.8701 111.959 91.0332 111.94 91.1947C111.947 91.3841 111.928 91.5862 111.915 91.8261Z" fill="white"/>
<path d="M115.907 67.8139C116.235 67.5739 116.576 67.3467 116.911 67.1194C117.245 66.8921 117.58 66.6585 117.908 66.4122C118.129 66.2544 118.344 66.0965 118.54 65.9387C118.735 65.7809 118.95 65.5978 119.171 65.4336C119.358 65.2735 119.572 65.1475 119.802 65.0611C119.892 65.0312 119.988 65.0219 120.082 65.0339C120.176 65.0459 120.266 65.079 120.345 65.1305C120.592 65.3018 120.806 65.5156 120.977 65.7619C121.321 66.2056 121.641 66.6671 121.936 67.1446C123.19 69.158 124.311 71.2501 125.295 73.4078C126.314 75.6492 127.142 77.9725 127.77 80.3529C128.32 82.4247 128.711 84.5354 128.938 86.6667C129.173 88.8601 129.285 91.0649 129.273 93.2708C129.273 94.0663 129.273 94.824 129.273 95.5501C129.273 96.2762 129.235 97.0212 129.178 97.7599C128.938 100.711 128.429 103.634 127.657 106.492C126.928 109.308 125.954 112.054 124.746 114.7C124.273 115.703 123.774 116.676 123.262 117.617C122.751 118.557 122.227 119.466 121.69 120.35C121.219 121.111 120.701 121.84 120.137 122.535C119.481 123.331 118.761 124.072 117.984 124.751L117.706 124.858C117.631 124.893 117.548 124.906 117.466 124.896C117.014 124.795 116.569 124.664 116.134 124.505C115.705 124.36 115.244 124.183 114.827 124.088H114.594C114.56 124.087 114.527 124.078 114.497 124.061C114.467 124.045 114.442 124.022 114.423 123.993C114.368 123.897 114.339 123.789 114.339 123.678C114.339 123.567 114.368 123.458 114.423 123.362C114.692 122.845 115.025 122.363 115.414 121.929C116.046 121.121 116.677 120.281 117.226 119.441C117.776 118.601 118.319 117.736 118.811 116.865C119.153 116.306 119.426 115.709 119.626 115.085C119.708 114.737 119.626 114.561 119.342 114.573C119.266 114.574 119.192 114.587 119.121 114.611C118.489 114.756 117.858 114.94 117.157 115.161C116.516 115.372 115.862 115.543 115.2 115.672L114.802 115.722H114.423C114.227 115.722 114.025 115.722 113.836 115.722C113.647 115.722 113.445 115.722 113.236 115.722C112.42 116.771 111.578 117.776 110.711 118.74C109.82 119.7 108.892 120.635 107.914 121.575C107.583 121.895 107.226 122.186 106.847 122.447C106.632 122.598 106.382 122.689 106.121 122.712C105.95 122.712 105.748 122.75 105.559 122.775C105.38 122.787 105.201 122.787 105.022 122.775C104.122 122.832 103.22 122.832 102.32 122.775C102.277 122.773 102.234 122.763 102.195 122.744C102.156 122.726 102.121 122.7 102.092 122.668C102.043 122.604 102.002 122.534 101.973 122.459C101.897 122.213 102.193 121.828 102.856 121.196C103.317 120.773 103.772 120.325 104.22 119.864L105.54 118.482C107.131 116.771 108.592 114.943 109.909 113.014C111.278 111.004 112.494 108.893 113.546 106.7C115.556 102.538 116.97 98.1123 117.744 93.5549C118.202 90.9077 118.456 88.229 118.502 85.5428C118.548 82.9312 118.413 80.3194 118.098 77.7264C117.883 75.9965 117.599 74.3107 117.252 72.6754C116.889 71.0323 116.441 69.4095 115.907 67.8139ZM120.106 103.966H121.589L123.149 103.909C123.728 101.108 124.051 98.2589 124.115 95.3985C124.176 92.5024 123.988 89.6063 123.553 86.7424C123.277 89.9846 122.8 93.2065 122.126 96.3898C121.476 99.4078 120.743 101.908 120.106 103.966Z" fill="white"/>
<path d="M134.389 111.891C135.709 111.715 136.384 111.614 137.742 111.374C138.373 111.26 138.733 111.197 139.389 111.071C139.596 111.024 139.806 110.974 140.021 110.919L140.652 110.761L141.025 110.704H141.385C141.561 110.704 141.688 110.736 141.738 110.843C141.784 111.032 141.764 111.23 141.681 111.405C141.543 111.786 141.377 112.155 141.183 112.51C140.936 112.971 140.595 113.565 140.147 114.284C138.99 116.153 137.775 117.934 136.504 119.626C135.233 121.318 133.93 122.9 132.596 124.374H130.797C130.217 124.387 129.638 124.368 129.06 124.317C128.697 124.28 128.337 124.223 127.981 124.146C127.611 124.081 127.238 124.043 126.863 124.033H126.516C125.752 124.033 124.963 124.134 124.161 124.222L121.799 124.481C121.743 124.492 121.685 124.492 121.629 124.481H121.509C121.244 124.481 121.25 124.241 121.509 123.85C121.768 123.458 122.412 122.675 123.359 121.482C127.675 116.026 130.944 109.818 133 103.172C133.646 101.051 134.161 98.8917 134.541 96.7069C134.932 94.4822 135.197 92.2373 135.336 89.9828C135.399 89.0042 135.45 88.0129 135.5 87.0153C135.551 86.0178 135.563 85.0076 135.563 84.0037C135.563 83.6249 135.563 83.2397 135.563 82.8609C135.563 82.4821 135.563 82.1033 135.513 81.7307C135.443 80.7584 135.33 79.7924 135.203 78.8517C135.077 77.9109 134.938 76.9576 134.787 75.9979C134.316 72.9589 133.609 69.9613 132.672 67.0324C131.761 64.1784 130.623 61.4019 129.269 58.7299C128.871 57.9343 128.53 57.2082 128.252 56.5642C128.003 56.0294 127.841 55.4582 127.772 54.8722C128.214 54.4365 128.404 54.2408 128.871 53.7799C129.502 53.1485 129.856 52.7949 130.5 52.1383C130.542 52.0753 130.558 51.9982 130.544 51.9237C130.544 51.8163 130.544 51.7595 130.607 51.7532C130.836 51.6228 131.077 51.515 131.327 51.4312C131.436 51.405 131.549 51.4038 131.659 51.4279C131.768 51.452 131.87 51.5006 131.958 51.5701C132.296 51.849 132.588 52.1792 132.823 52.5487C133.302 53.2635 133.742 54.0033 134.143 54.7648C135.19 56.7302 136.11 58.7611 136.896 60.845C137.694 62.9754 138.381 65.1461 138.954 67.3481C139.156 68.1373 139.358 68.9391 139.585 69.7599C139.813 70.5807 139.958 71.4141 140.103 72.2854C140.463 74.3964 140.709 76.525 140.842 78.6623C140.974 80.8026 141.012 82.9809 140.955 85.1591C140.9 87.7328 140.689 90.3009 140.324 92.8492C139.954 95.3357 139.446 97.7997 138.802 100.23C138.268 102.234 137.647 104.193 136.94 106.108C136.191 108.079 135.34 110.01 134.389 111.891Z" fill="white"/>
<path d="M43.1047 128.485H42.3155L41.5263 128.523C41.5038 128.53 41.4794 128.53 41.4569 128.523C41.2985 128.516 41.147 128.456 41.0275 128.352C40.8937 128.244 40.7729 128.122 40.6676 127.986C40.3031 127.487 39.836 127.071 39.2976 126.767C38.8085 126.508 38.2598 126.382 37.7065 126.401C37.5441 126.402 37.3826 126.425 37.2267 126.471C37.1087 126.499 37.0013 126.56 36.9173 126.647C36.8435 126.731 36.8031 126.839 36.8036 126.95C36.7894 127.077 36.8136 127.204 36.8731 127.317C36.985 127.508 37.1185 127.686 37.2709 127.847C37.444 128.028 37.6296 128.197 37.8265 128.352C38.0285 128.511 38.2393 128.659 38.4578 128.794C38.6746 128.918 38.9005 129.026 39.1334 129.116L40.554 129.659C41.0212 129.836 41.4947 130.031 41.962 130.252C42.2777 130.398 42.5933 130.556 42.8964 130.713C43.1994 130.871 43.5278 131.048 43.8245 131.244C44.1378 131.436 44.4394 131.647 44.7274 131.875C45.0376 132.122 45.3289 132.392 45.5987 132.683C46.285 133.405 46.8769 134.211 47.3602 135.082C47.7759 135.833 48.07 136.645 48.2315 137.488C48.2757 137.778 48.3325 138.063 48.3957 138.347C48.4606 138.574 48.4606 138.814 48.3957 139.041C48.3684 139.14 48.3197 139.231 48.2531 139.308C48.1866 139.386 48.1037 139.448 48.0105 139.489C47.8046 139.552 47.585 139.552 47.3791 139.489C47.0943 139.414 46.8157 139.317 46.5457 139.199C46.2679 139.079 45.9838 138.946 45.706 138.808L45.6176 138.763L45.5229 138.7L45.3019 138.555L45.0872 138.397L44.2791 137.81L43.4583 137.179L42.5997 136.547L41.6715 135.821L41.0402 135.316C40.8192 135.146 40.6045 134.981 40.4088 134.817C39.8216 134.344 39.2471 133.889 38.6915 133.46C38.1359 133.03 37.5929 132.62 37.0814 132.197C36.9321 132.092 36.7982 131.967 36.6837 131.825C36.6458 131.755 36.6837 131.73 36.8731 131.761C37.0432 131.788 37.2118 131.824 37.3782 131.869C37.5613 131.913 37.7507 131.97 37.9527 132.033C38.1548 132.096 38.4705 132.203 38.7356 132.311L39.5754 132.658C39.6911 132.711 39.7994 132.779 39.8974 132.86C39.9838 132.939 40.0602 133.028 40.1247 133.125C40.3102 133.386 40.5217 133.627 40.756 133.845C41.0338 134.098 41.3243 134.344 41.6336 134.577C41.943 134.811 42.265 135.032 42.5428 135.209C42.784 135.373 43.0373 135.518 43.3005 135.644C43.5357 135.766 43.7938 135.837 44.0581 135.853C44.2665 135.853 44.3422 135.714 44.298 135.43C44.1863 134.963 43.9246 134.546 43.553 134.243C43.2457 133.94 42.9118 133.665 42.5555 133.422C42.2208 133.201 41.8862 132.999 41.5453 132.791C40.977 132.481 40.4025 132.159 39.8342 131.9L38.079 131.117C37.5992 130.884 37.113 130.638 36.6142 130.372C36.1155 130.107 35.623 129.817 35.1368 129.514C34.6507 129.211 34.2087 128.882 33.8046 128.598C33.4328 128.327 33.0862 128.023 32.7692 127.689C32.5059 127.419 32.2922 127.105 32.1378 126.761C32.0116 126.46 31.9807 126.127 32.0494 125.808C32.0931 125.627 32.1847 125.461 32.3146 125.328L32.7565 124.905C32.9461 124.714 33.1581 124.546 33.3879 124.406C33.6308 124.26 33.8816 124.127 34.1392 124.008C34.4044 123.882 34.6822 123.775 34.979 123.667L35.8503 123.364C36.0713 123.288 36.2985 123.225 36.5322 123.168C36.7651 123.11 37.0012 123.066 37.2393 123.036C37.793 122.953 38.3544 122.934 38.9124 122.979C39.4901 123.021 40.0582 123.148 40.5982 123.358C41.1666 123.576 41.6955 123.885 42.164 124.273C42.6797 124.705 43.123 125.217 43.4773 125.789C43.6919 126.13 43.8876 126.477 44.0707 126.837C44.2538 127.197 44.4243 127.55 44.5885 127.897C44.6923 128.056 44.7307 128.248 44.6958 128.434C44.6453 128.541 44.5253 128.598 44.3296 128.605H44.096H43.8687H43.4962L43.13 128.573L43.1047 128.485Z" fill="white"/>
<path d="M51.3647 141.427C51.2214 141.194 51.0949 140.952 50.9858 140.701C50.8911 140.48 50.8027 140.259 50.7333 140.07C50.6638 139.88 50.6007 139.653 50.5502 139.438C50.4997 139.224 50.4239 139.028 50.3482 138.807C50.0514 137.967 49.7736 137.121 49.5084 136.281C49.2432 135.442 48.9844 134.589 48.7318 133.718C48.6498 133.434 48.5803 133.144 48.5109 132.853C48.4412 132.563 48.3569 132.276 48.2583 131.994C47.9868 131.193 47.7027 130.384 47.4249 129.583C47.1471 128.781 46.8693 127.966 46.6167 127.158C46.3642 126.35 46.1685 125.655 45.9854 124.917C45.8023 124.178 45.5876 123.408 45.354 122.644C45.2719 122.315 45.3856 122.12 45.6886 122.082C46.4715 121.981 47.2734 121.905 48.05 121.81C48.8265 121.716 49.6158 121.646 50.4113 121.602H50.5502C51.592 121.558 52.6274 121.533 53.6629 121.533C54.6983 121.533 56.4662 121.312 56.8197 121.564C57.0065 121.962 57.1219 122.389 57.1607 122.827C57.2427 123.237 57.3122 123.654 57.369 124.09C57.4258 124.525 57.47 124.923 57.5142 125.352C57.5584 125.782 57.6089 126.186 57.6658 126.615C54.8625 126.502 53.4671 126.457 50.6828 126.4C51.03 128.036 51.2131 128.85 51.5856 130.454L54.2879 130.77C55.1908 130.864 56.1126 130.972 57.0659 131.085C57.108 131.452 57.1691 131.817 57.2491 132.178C57.3311 132.544 57.4132 132.897 57.5016 133.251C57.59 133.604 57.6595 133.958 57.7289 134.318C57.7975 134.67 57.8418 135.027 57.8615 135.385C55.6643 135.031 54.5784 134.842 52.4254 134.444C52.8673 136.193 53.0946 137.064 53.5618 138.782C53.6176 138.81 53.6705 138.844 53.7197 138.883C53.7613 138.914 53.8057 138.942 53.8523 138.965C54.4205 139.167 54.9951 139.356 55.5633 139.539C56.1315 139.722 56.7187 139.906 57.2933 140.12L57.7794 140.297C57.9309 140.348 58.0888 140.398 58.2403 140.436C58.3711 140.468 58.504 140.491 58.6381 140.505C58.7681 140.521 58.8995 140.521 59.0295 140.505H59.1116H59.2C59.4399 140.568 59.6483 140.884 59.8314 141.465C60.0159 142.103 60.1676 142.75 60.286 143.403C60.3973 144.029 60.4522 144.662 60.4501 145.297L59.7809 145.007L59.4589 144.9L59.3452 144.862C58.8212 144.685 58.5623 144.59 58.0383 144.401L57.5079 144.205C57.3248 144.142 57.148 144.066 56.9712 143.997C56.3399 143.732 55.7085 143.473 55.0771 143.195C54.4458 142.917 53.8144 142.627 53.183 142.336L53.0062 142.254L52.8231 142.166L52.659 142.103L52.5138 142.071L52.3749 142.04L52.2297 141.983C52.0889 141.915 51.9556 141.832 51.8319 141.737L51.3647 141.427Z" fill="white"/>
<path d="M66.9746 142.117C67.9911 142.287 68.5025 142.363 69.5316 142.508C70.0304 142.584 70.2829 142.615 70.7944 142.679L71.2553 142.729L71.7162 142.78L72.0129 142.824L72.3223 142.881C72.4517 142.905 72.5771 142.948 72.6948 143.007C72.7899 143.064 72.8665 143.147 72.9158 143.247C72.9763 143.369 73.0127 143.502 73.0231 143.638C73.0389 143.848 73.0389 144.059 73.0231 144.27C73.0231 144.901 73.0231 145.532 73.0231 146.164C73.0231 146.795 73.0231 147.382 73.0231 147.957L71.5078 147.698C71.0217 147.616 70.5292 147.528 70.0493 147.414C69.721 147.338 69.3864 147.256 69.0644 147.168L68.0984 146.94L67.8206 146.89C67.2524 146.795 66.6778 146.713 66.1159 146.644L64.4427 146.41H64.3165H64.2155C64.1048 146.387 64.0002 146.341 63.9088 146.275C63.8173 146.208 63.7411 146.123 63.6851 146.025C63.5346 145.69 63.4346 145.335 63.3884 144.97C63.1737 143.821 62.9653 142.672 62.757 141.536C62.5486 140.399 62.3655 139.238 62.1635 138.07C62.0309 137.337 61.892 136.605 61.7531 135.872C61.6142 135.14 61.4753 134.408 61.349 133.669C61.2922 133.347 61.248 133.037 61.2228 132.728C61.1975 132.419 61.1722 132.097 61.147 131.781C61.147 131.667 61.147 131.541 61.147 131.421C61.147 131.301 61.147 131.175 61.1028 131.061C61.0586 130.746 60.9892 130.43 60.926 130.102C60.8629 129.773 60.825 129.47 60.7871 129.148C60.6735 128.113 60.5535 127.071 60.4525 126.042C60.3515 125.013 60.2378 123.958 60.1368 122.885C60.108 122.606 60.108 122.324 60.1368 122.045C60.1561 121.831 60.2499 121.63 60.402 121.477H61.5069H63.1611C63.2001 121.477 63.238 121.464 63.2684 121.439C63.2832 121.429 63.3008 121.423 63.3189 121.423C63.337 121.423 63.3546 121.429 63.3694 121.439C63.6093 121.477 63.8051 121.515 63.9566 121.553C64.0984 121.584 64.2279 121.657 64.3291 121.761C64.442 121.898 64.5181 122.061 64.5501 122.235C64.6216 122.53 64.6722 122.829 64.7016 123.131C64.79 123.889 64.8595 124.647 64.9163 125.392C64.9731 126.137 65.0363 126.901 65.1057 127.658C65.131 127.932 65.1625 128.203 65.2004 128.473C65.2383 128.75 65.2762 129.028 65.3014 129.306C65.3582 129.988 65.4088 130.67 65.4593 131.339C65.5098 132.008 65.5666 132.678 65.6487 133.347C65.7371 134.149 65.8381 134.957 65.9328 135.752C66.0275 136.548 66.1411 137.343 66.2611 138.145C66.3621 138.808 66.4695 139.471 66.5894 140.134C66.7094 140.797 66.8546 141.416 66.9746 142.117Z" fill="white"/>
<path d="M79.4192 143.429C80.4799 143.473 81.0165 143.492 82.0836 143.511H83.3779H83.8577H84.3312H84.6343H84.9437C85.0737 143.517 85.2017 143.545 85.3225 143.593C85.4151 143.634 85.4909 143.705 85.5372 143.795C85.5886 143.913 85.6164 144.039 85.6193 144.168C85.6311 144.368 85.6311 144.568 85.6193 144.768C85.5751 145.399 85.5309 146.03 85.4993 146.662C85.4677 147.293 85.4361 147.868 85.3983 148.436H83.8388C83.3337 148.436 82.8223 148.436 82.3235 148.404C81.9762 148.404 81.629 148.354 81.2943 148.322C80.9597 148.291 80.6188 148.265 80.2841 148.259H79.9937C79.3623 148.259 78.7815 148.259 78.1817 148.303L76.3949 148.373C76.3509 148.379 76.3063 148.379 76.2623 148.373H76.1297C76.0205 148.369 75.9141 148.336 75.8212 148.279C75.7282 148.221 75.6518 148.14 75.5994 148.044C75.4685 147.692 75.3939 147.321 75.3784 146.946C75.2647 145.715 75.1511 144.484 75.0501 143.265C74.9491 142.046 74.8417 140.815 74.7281 139.565C74.6586 138.782 74.5702 137.999 74.4818 137.223C74.3934 136.446 74.3177 135.657 74.2482 134.861C74.2127 134.526 74.1958 134.189 74.1977 133.851C74.1977 133.523 74.1977 133.182 74.1977 132.841C74.1977 132.715 74.1977 132.588 74.1977 132.456C74.1977 132.323 74.1977 132.197 74.1977 132.071C74.1977 131.73 74.1283 131.383 74.0904 131.048C74.0525 130.713 74.0272 130.366 74.0146 130.025C73.9767 128.92 73.9262 127.803 73.8946 126.704C73.8631 125.605 73.8189 124.482 73.7873 123.358C73.7783 123.06 73.7973 122.762 73.8441 122.468C73.8765 122.243 73.9832 122.037 74.1472 121.88L75.2584 121.95L76.9126 122.07C76.9517 122.07 76.9896 122.056 77.0199 122.032C77.036 122.022 77.0546 122.016 77.0736 122.016C77.0926 122.016 77.1112 122.022 77.1273 122.032C77.3672 122.089 77.5629 122.133 77.7081 122.183C77.848 122.225 77.9728 122.306 78.068 122.417C78.1752 122.564 78.2446 122.736 78.2701 122.916C78.3256 123.223 78.3615 123.533 78.3774 123.844C78.4216 124.621 78.4532 125.403 78.4658 126.174C78.4784 126.944 78.4974 127.721 78.5226 128.51C78.5226 128.781 78.5226 129.065 78.5731 129.35C78.6236 129.634 78.6173 129.918 78.6236 130.202C78.6236 130.909 78.6236 131.61 78.6615 132.298C78.6994 132.986 78.6615 133.681 78.7183 134.369C78.7625 135.196 78.8131 136.023 78.8572 136.844C78.9014 137.665 78.9583 138.485 79.0277 139.306C79.0782 139.988 79.1477 140.67 79.2171 141.352C79.2866 142.034 79.3434 142.709 79.4192 143.429Z" fill="white"/>
<path d="M87.6184 148.166C87.5385 147.881 87.4877 147.589 87.4669 147.294C87.4511 147.006 87.4511 146.717 87.4669 146.429C87.4669 146.139 87.4669 145.855 87.5174 145.577C87.5679 145.299 87.549 145.021 87.549 144.75C87.549 143.645 87.549 142.527 87.5995 141.423C87.65 140.318 87.65 139.194 87.6879 138.064C87.6879 137.685 87.7195 137.306 87.7447 136.933C87.7636 136.561 87.7636 136.188 87.7447 135.816C87.7447 134.793 87.6753 133.751 87.6311 132.722C87.5869 131.693 87.549 130.651 87.53 129.616C87.5111 128.58 87.53 127.678 87.53 126.73C87.53 125.783 87.53 124.836 87.53 123.826C87.53 123.409 87.6942 123.195 88.0036 123.195C88.7928 123.239 89.6136 123.315 90.4028 123.359C91.192 123.403 91.9939 123.479 92.802 123.574H92.9346C93.9827 123.713 95.0307 123.87 96.0915 124.041C97.1522 124.211 98.9516 124.268 99.2483 124.571C99.3746 124.691 99.3556 125.367 99.3683 125.758C99.3809 126.15 99.3683 126.528 99.3683 126.92C99.3683 127.311 99.3115 127.697 99.2736 128.082C99.2357 128.467 99.2041 128.865 99.1789 129.262L92.0507 128.757C92.0128 130.607 91.9939 131.529 91.9623 133.347C92.8967 133.398 93.8564 133.436 94.7529 133.461L97.6004 133.549C97.5574 133.901 97.5363 134.255 97.5373 134.61C97.5373 134.957 97.5373 135.305 97.5373 135.639C97.5373 135.974 97.5373 136.321 97.5373 136.662C97.5229 137.016 97.4807 137.369 97.411 137.716C95.157 137.83 94.0206 137.868 91.7287 137.912C91.6908 139.92 91.6718 140.911 91.634 142.887L91.7792 142.95C91.8213 142.971 91.8659 142.986 91.9118 142.995C92.5431 142.995 93.124 142.995 93.7238 142.944C94.3236 142.894 94.9361 142.881 95.5232 142.881H96.0157C96.1764 142.881 96.3368 142.868 96.4955 142.843C96.6386 142.827 96.78 142.8 96.9185 142.761C97.0661 142.722 97.2098 142.669 97.3479 142.603L97.4426 142.565H97.531C97.7835 142.534 97.9288 142.78 97.954 143.304C97.995 143.901 97.995 144.5 97.954 145.097C97.8929 145.738 97.7724 146.372 97.5941 146.991L96.8996 147.143L96.5587 147.212H96.4387L95.056 147.477L94.4815 147.578L93.9069 147.661C93.2187 147.749 92.5053 147.856 91.8108 147.926C91.1163 147.995 90.3901 148.052 89.6893 148.115H89.4936H89.2853C89.2223 148.109 89.1589 148.109 89.0959 148.115L88.9064 148.178C88.8527 148.207 88.7954 148.228 88.736 148.241L88.5655 148.279C88.4179 148.292 88.2692 148.273 88.1299 148.222L87.6184 148.166Z" fill="white"/>
<path d="M110.591 136.849C110.679 137.329 110.761 137.778 110.837 138.201C110.913 138.624 110.97 139.04 111.014 139.463C111.058 139.886 111.096 140.145 111.153 140.448C111.203 140.727 111.304 140.994 111.449 141.237C111.496 141.308 111.519 141.393 111.513 141.477C111.506 141.592 111.492 141.706 111.468 141.818C111.468 141.945 111.418 142.071 111.386 142.197C111.355 142.323 111.329 142.45 111.31 142.563L111.108 142.734C111.068 142.773 111.024 142.806 110.976 142.835C110.905 142.817 110.832 142.817 110.761 142.835L110.515 142.923C110.408 142.974 110.288 143.031 110.174 143.094L109.827 143.264C109.534 143.395 109.235 143.511 108.93 143.611L108.04 143.889C107.975 143.918 107.903 143.927 107.834 143.915C107.764 143.902 107.699 143.869 107.649 143.82C107.556 143.704 107.499 143.563 107.484 143.416C107.396 142.784 107.295 142.102 107.2 141.408C107.106 140.713 106.979 139.994 106.847 139.242C106.847 139.16 106.815 139.078 106.803 139.002C106.79 138.927 106.765 138.819 106.733 138.706L105.944 138.889L105.161 139.066C104.997 140.044 104.826 140.991 104.668 141.907C104.511 142.822 104.34 143.744 104.163 144.653C104.132 144.811 104.107 144.944 104.081 145.038C104.065 145.122 104.037 145.202 103.999 145.278C103.971 145.335 103.927 145.384 103.873 145.417C103.805 145.457 103.733 145.489 103.658 145.512L103.456 145.581C103.046 145.695 102.635 145.802 102.231 145.897C101.827 145.992 101.404 146.08 100.969 146.187C100.811 146.232 100.703 146.187 100.653 146.112C100.603 145.963 100.592 145.805 100.621 145.651C100.716 144.824 100.811 143.978 100.893 143.125C101.101 140.903 101.31 138.636 101.493 136.351C101.676 134.065 101.872 131.729 102.023 129.368C102.061 128.812 102.086 128.244 102.099 127.688C102.111 127.133 102.143 126.558 102.168 125.996C102.173 125.861 102.186 125.726 102.206 125.592C102.218 125.513 102.251 125.439 102.301 125.377C102.35 125.324 102.41 125.283 102.478 125.257L102.774 125.15C102.906 125.102 103.045 125.075 103.185 125.068C103.317 125.055 103.45 125.055 103.583 125.068C103.796 125.101 104.007 125.149 104.214 125.213C104.419 125.283 104.63 125.332 104.845 125.358H104.889C104.995 125.375 105.099 125.403 105.199 125.441C105.294 125.478 105.394 125.504 105.496 125.516H105.609C106.27 125.497 106.931 125.535 107.585 125.63C108.267 125.729 108.942 125.87 109.606 126.053C110.237 126.236 110.925 126.432 111.582 126.634C112.079 126.783 112.542 127.028 112.946 127.354C113.321 127.66 113.679 127.987 114.019 128.332C114.21 128.51 114.362 128.725 114.467 128.964C114.562 129.192 114.626 129.432 114.657 129.677C114.682 129.925 114.682 130.174 114.657 130.422C114.657 130.681 114.594 130.94 114.549 131.192C114.504 131.469 114.43 131.739 114.328 132C114.221 132.272 114.107 132.543 114 132.809C113.853 133.157 113.673 133.491 113.464 133.806C113.259 134.13 113.031 134.438 112.782 134.728C112.535 135.018 112.27 135.309 111.986 135.587C111.702 135.864 111.412 136.142 111.108 136.42C111.021 136.494 110.928 136.561 110.831 136.622L110.591 136.849ZM105.786 135.018H106.159C106.278 135.028 106.399 135.028 106.518 135.018C106.921 134.997 107.32 134.925 107.705 134.804C108.091 134.69 108.495 134.551 108.899 134.387C109.149 134.291 109.367 134.127 109.53 133.914C109.693 133.691 109.813 133.441 109.884 133.175C109.983 132.829 110.047 132.473 110.073 132.114C110.1 131.762 110.084 131.408 110.023 131.06C109.981 130.81 109.894 130.57 109.764 130.353C109.707 130.254 109.627 130.17 109.532 130.107C109.437 130.044 109.328 130.005 109.214 129.993C108.981 129.961 108.741 129.93 108.507 129.885C108.265 129.84 108.021 129.811 107.775 129.797C107.533 129.775 107.29 129.775 107.049 129.797C106.788 129.829 106.533 129.897 106.291 129.999C106.222 130.832 106.14 131.666 106.058 132.48C105.975 133.295 105.874 134.172 105.805 135.018H105.786Z" fill="white"/>
<path d="M126.638 131.119L125.748 131.314L124.839 131.504H124.763C124.595 131.529 124.487 131.516 124.441 131.466C124.418 131.439 124.401 131.408 124.391 131.374C124.382 131.34 124.379 131.305 124.384 131.27C124.413 131.131 124.395 130.987 124.332 130.859C124.269 130.732 124.165 130.63 124.037 130.569C123.642 130.39 123.206 130.318 122.774 130.361C122.592 130.366 122.411 130.385 122.231 130.418C122.07 130.446 121.913 130.495 121.764 130.563C121.618 130.633 121.48 130.72 121.354 130.822C121.238 130.909 121.141 131.018 121.069 131.144C120.992 131.281 120.947 131.435 120.937 131.592C120.925 131.726 120.947 131.86 121 131.984C121.05 132.103 121.133 132.206 121.24 132.28C121.36 132.365 121.498 132.42 121.644 132.438C121.991 132.495 122.345 132.533 122.698 132.558L123.721 132.621H124.353C124.561 132.621 124.75 132.621 124.927 132.659C125.078 132.675 125.228 132.7 125.375 132.735C125.478 132.751 125.57 132.805 125.634 132.886C125.767 133.051 125.697 133.253 125.445 133.518C125.018 133.926 124.56 134.299 124.075 134.635L123.349 135.178L122.522 135.81L121.347 136.662C120.968 136.94 120.602 137.205 120.242 137.458L119.131 138.247L118.045 139.004L117.938 139.08L117.843 139.143L117.635 139.27L117.439 139.377L116.751 139.743C116.517 139.863 116.29 139.97 116.063 140.065C115.858 140.157 115.647 140.233 115.431 140.292C115.249 140.348 115.059 140.371 114.869 140.362C114.759 140.355 114.65 140.343 114.541 140.324C114.493 140.32 114.446 140.303 114.407 140.274C114.368 140.245 114.338 140.205 114.32 140.16C114.213 139.859 114.137 139.548 114.093 139.232C114.032 138.813 114.032 138.388 114.093 137.969C114.119 137.769 114.198 137.58 114.32 137.42C114.468 137.246 114.657 137.112 114.869 137.028C115.103 136.921 115.349 136.832 115.558 136.757C115.766 136.681 115.974 136.612 116.189 136.555C116.404 136.498 116.688 136.435 116.921 136.391L117.635 136.283C117.729 136.283 117.786 136.283 117.799 136.34C117.804 136.417 117.782 136.493 117.736 136.555C117.617 136.717 117.561 136.916 117.578 137.117C117.59 137.182 117.618 137.242 117.66 137.293C117.702 137.344 117.756 137.383 117.818 137.407C117.98 137.447 118.149 137.447 118.31 137.407C118.528 137.372 118.74 137.308 118.942 137.218C119.272 137.068 119.593 136.897 119.901 136.706C120.244 136.495 120.567 136.254 120.867 135.986C121.253 135.646 121.398 135.431 121.303 135.298C121.254 135.246 121.196 135.204 121.131 135.175C121.066 135.146 120.996 135.13 120.924 135.128C120.714 135.114 120.503 135.114 120.293 135.128C119.914 135.128 119.523 135.128 119.131 135.084C118.748 135.053 118.367 134.989 117.995 134.894C117.712 134.825 117.446 134.701 117.212 134.528C116.985 134.337 116.815 134.088 116.719 133.808C116.588 133.479 116.52 133.127 116.517 132.773C116.507 132.374 116.565 131.977 116.688 131.598C116.824 131.174 117.022 130.772 117.275 130.405C117.565 129.991 117.919 129.624 118.323 129.319C118.533 129.149 118.759 129.001 118.999 128.877C119.232 128.764 119.478 128.663 119.737 128.555C120.042 128.426 120.356 128.322 120.678 128.246C120.997 128.171 121.319 128.114 121.644 128.075C121.972 128.031 122.275 128 122.642 127.981L123.664 127.924H124.435C124.694 127.924 124.946 127.924 125.199 127.924C125.773 127.924 126.322 128.006 126.847 128.075C127.312 128.139 127.772 128.238 128.223 128.372C128.544 128.46 128.843 128.615 129.101 128.827C129.189 128.902 129.254 129.003 129.285 129.115C129.317 129.228 129.314 129.347 129.277 129.458C129.233 129.615 129.165 129.764 129.075 129.9C128.981 130.052 128.873 130.203 128.766 130.348C128.682 130.462 128.571 130.553 128.444 130.613C128.27 130.696 128.088 130.759 127.901 130.803L127.648 130.866L127.402 130.923L127.023 130.999L126.644 131.068L126.638 131.119Z" fill="white"/>
<path d="M34.9195 35.4104L33.985 35.9597L33.038 36.5468C33.0124 36.5728 32.9825 36.5942 32.9496 36.61C32.7917 36.6857 32.7349 36.61 32.7791 36.4458C32.847 36.1971 32.94 35.9559 33.0569 35.7261C33.4634 35.0058 33.7673 34.2322 33.9598 33.4278C33.9976 33.0301 33.764 33.0048 33.2526 33.3395C33.0546 33.4704 32.8668 33.616 32.6907 33.7751C32.4692 33.9742 32.2584 34.1849 32.0593 34.4065C31.8384 34.6464 31.5858 34.9431 31.2954 35.303C31.0049 35.6629 30.7587 35.9912 30.5693 36.2753C30.2725 36.7173 30.0137 37.1403 29.7927 37.5381C29.6011 37.8888 29.4324 38.2516 29.2876 38.624C29.1765 38.8861 29.1021 39.1624 29.0666 39.4448C29.0666 39.6721 29.0666 39.8173 29.1676 39.8868C29.3702 40.0451 29.5809 40.1926 29.799 40.3288C30.048 40.4752 30.2718 40.6606 30.462 40.8781C30.6062 41.0474 30.7411 41.2244 30.866 41.4084C31.0097 41.6275 31.1223 41.8655 31.2007 42.1155C31.2991 42.4487 31.3605 42.7917 31.3838 43.1384C31.4165 43.6309 31.4038 44.1255 31.3459 44.6158C31.1619 46.3333 30.8581 48.0358 30.4367 49.7109C29.904 51.8135 29.2505 53.8837 28.4795 55.911C28.1575 56.7571 27.8481 57.5968 27.5703 58.4365C27.0001 60.122 26.183 61.7135 25.1458 63.1592C24.7463 63.7002 24.2795 64.1882 23.7568 64.6113C23.2996 64.9695 22.8233 65.3025 22.3299 65.6089C21.869 65.8867 21.4081 66.1708 20.9535 66.4613C20.9157 66.5009 20.8676 66.5293 20.8146 66.5433H20.6883C20.5981 66.5531 20.5071 66.5531 20.4168 66.5433C20.3339 66.5374 20.2515 66.5247 20.1706 66.5055C19.8759 66.4465 19.5792 66.396 19.2803 66.3539C18.9907 66.3156 18.7053 66.2501 18.428 66.1582C18.1476 66.0697 17.8848 65.933 17.6514 65.7541C17.3919 65.5418 17.1773 65.28 17.02 64.9839C16.9001 64.7692 16.7864 64.5356 16.6728 64.302C16.541 64.0129 16.4763 63.6978 16.4834 63.3802C16.4463 62.2399 16.4906 61.0984 16.616 59.9644C16.7591 58.6978 17.0083 57.4454 17.361 56.2204C17.5048 55.7025 17.6971 55.1994 17.9355 54.7177C18.1272 54.3314 18.3787 53.9777 18.6806 53.6696C18.9263 53.4176 19.1878 53.1814 19.4635 52.9625C19.6819 52.79 19.9142 52.6359 20.158 52.5016C20.3994 52.3682 20.6588 52.2703 20.9282 52.2112C21.159 52.1662 21.3943 52.1492 21.6291 52.1607C21.7238 52.1607 21.749 52.2617 21.7175 52.4637C21.6698 52.717 21.5957 52.9646 21.4965 53.2024C21.2327 53.8526 21.0523 54.5336 20.9598 55.2291C20.887 55.7222 20.8998 56.2242 20.9977 56.7129C21.0538 57.0449 21.2077 57.3527 21.4397 57.5968C21.5259 57.6884 21.6361 57.754 21.7577 57.7864C21.8793 57.8187 22.0075 57.8165 22.1278 57.7799C22.5802 57.6244 22.9847 57.3547 23.3022 56.997C23.851 56.3614 24.2924 55.6406 24.6091 54.863C25.1032 53.8777 25.3992 52.8052 25.4804 51.7061C25.5225 51.2164 25.4689 50.7232 25.3226 50.2539C25.2128 49.9744 25.0522 49.7175 24.8491 49.4963C24.5397 49.1617 24.2177 48.8649 23.9525 48.5997C23.6649 48.3347 23.4105 48.0358 23.1949 47.7095C23.0103 47.3933 22.9123 47.0339 22.9107 46.6677C22.9208 46.078 23.0341 45.4947 23.2454 44.9441C23.5289 44.1466 23.8773 43.3738 24.2871 42.6333C24.7761 41.7308 25.3179 40.858 25.9098 40.0194C26.5411 39.1039 27.2483 38.1758 28.0312 37.2098C28.8141 36.2438 29.6601 35.2715 30.5567 34.2928C31.0428 33.7499 31.5037 33.27 31.9141 32.8407L33.1769 31.5274C33.7135 30.9844 34.206 30.492 34.6606 30.0563L35.9233 28.8252L37.0787 27.7581L38.2468 26.8174L39.0044 26.186C39.2444 25.984 39.4653 25.8072 39.6737 25.643C40.0216 25.3557 40.4032 25.1119 40.8102 24.917C41.0943 24.797 41.2584 24.8412 41.2963 25.0622C41.2777 25.5016 41.1658 25.932 40.968 26.3249C40.5924 27.2379 40.1709 28.1314 39.7053 29.0019L38.6446 31.035C38.272 31.7421 37.9059 32.4619 37.546 33.1816C37.3511 33.5969 37.1164 33.9923 36.8451 34.3623C36.6625 34.6164 36.4307 34.8311 36.1633 34.9937L35.8981 35.1326L35.6455 35.2462C35.5256 35.303 35.3993 35.3472 35.2793 35.3977C35.1594 35.4483 35.0331 35.4924 34.9068 35.5493L34.9195 35.4104Z" fill="white"/>
<path d="M46.7536 21.3977C47.5112 20.9242 48.2626 20.4696 49.0013 20.034C49.74 19.5983 50.4976 19.1627 51.2679 18.7333C51.065 19.201 50.8309 19.6545 50.5671 20.0908L49.6074 21.7387C49.3612 22.1743 49.096 22.6163 48.8371 23.0709C48.5783 23.5255 48.3194 23.9737 48.0732 24.4094C47.2313 25.912 46.4274 27.4316 45.6613 28.9679C44.891 30.4958 44.146 32.0616 43.4326 33.6464C42.6118 35.4773 41.8352 37.3146 41.1217 39.1456C40.4083 40.9766 39.7327 42.8581 39.1013 44.7838C38.7478 45.8655 38.4321 46.9178 38.1543 47.9406C37.883 48.9095 37.6721 49.8942 37.5229 50.8891C37.3965 51.7246 37.3521 52.5705 37.3903 53.4146C37.4069 54.1102 37.5637 54.7952 37.8512 55.4287C37.9712 55.7065 38.1291 55.8517 38.3311 55.8644C38.5682 55.8623 38.795 55.7671 38.9625 55.5992C39.6919 54.9547 40.303 54.1876 40.7682 53.3326C41.419 52.0728 41.9353 50.748 42.3087 49.3802C43.603 44.9606 45.0868 40.6735 46.7283 36.5128C48.3699 32.3521 50.163 28.2671 52.1013 24.2894C52.5307 23.4118 52.941 22.5405 53.3641 21.6882C53.7871 20.8358 54.1849 19.9835 54.6268 19.1627C54.7657 18.8912 54.9236 18.6008 55.094 18.2914L55.6749 17.2433C55.9527 17.1739 56.2052 17.117 56.4452 17.0792C56.6986 17.0393 56.9495 16.9845 57.1965 16.915L57.7774 16.7193C58.0488 16.6309 58.3203 16.5299 58.6045 16.4225C58.8886 16.3152 59.179 16.1826 59.4631 16.0816C59.7472 15.9806 59.8356 16.0374 59.8483 16.1763C59.7554 16.6226 59.5866 17.0497 59.3495 17.439C58.3708 19.4215 57.4554 21.4419 56.5146 23.4686C55.5739 25.4953 54.7278 27.5726 53.8881 29.6877C53.3325 31.0977 52.8106 32.4973 52.3223 33.8863C51.8298 35.2816 51.3437 36.7085 50.8512 38.1607C50.283 39.8443 49.7295 41.528 49.1907 43.2117C48.6603 44.9037 48.1489 46.6148 47.6501 48.3132C47.5365 48.7235 47.3976 49.1339 47.2397 49.5759C47.0974 49.9901 46.9773 50.4116 46.8799 50.8386C46.6463 51.8425 46.3621 52.8275 46.0654 53.7745C45.7687 54.7216 45.434 55.6244 45.1499 56.4957C44.8658 57.367 44.5185 58.2068 44.1713 59.0212C43.824 59.8357 43.4894 60.6375 43.1611 61.4078C42.8271 62.1471 42.4498 62.866 42.0309 63.5608C41.742 64.1056 41.3316 64.5766 40.8313 64.9372C40.6246 65.0593 40.4301 65.2009 40.2504 65.3602C40.0547 65.537 39.859 65.7012 39.6696 65.859C39.4802 66.0168 39.2844 66.162 39.1013 66.282C38.9437 66.3916 38.7567 66.451 38.5647 66.4525C38.2773 66.4619 37.9897 66.4428 37.706 66.3957C37.3255 66.3269 36.9531 66.219 36.5948 66.0737C36.2349 65.9284 35.8687 65.7895 35.5025 65.6633C35.1061 65.5269 34.7252 65.3491 34.3661 65.1329C33.9395 64.8356 33.5997 64.4303 33.3811 63.9586C32.3781 61.8481 31.8809 59.5328 31.929 57.1966C32.0046 54.0118 32.5799 50.8586 33.6337 47.8522C34.7405 44.4808 36.0239 41.1699 37.4787 37.9334C37.9838 36.8138 38.5121 35.7089 39.0635 34.6187C39.6128 33.5264 40.1621 32.4404 40.7303 31.3734C41.0965 30.6915 41.4501 30.0223 41.7847 29.372C42.1193 28.7217 42.4855 28.065 42.877 27.4021C43.4747 26.3835 44.0913 25.3859 44.7269 24.4094C45.3625 23.4329 46.038 22.429 46.7536 21.3977Z" fill="white"/>
<path d="M55.3898 50.8523C54.992 52.2287 54.6132 53.5735 54.247 54.8741C53.8808 56.1748 53.5525 57.5006 53.2558 58.8202C52.959 60.1398 52.6623 61.5667 52.4224 62.9431C52.1824 64.3195 51.9551 65.7211 51.7341 67.1165C51.6659 67.6545 51.5561 68.1864 51.4058 68.7075C51.2985 69.0232 51.1596 69.1558 51.0018 69.1116C50.8999 69.07 50.8107 69.0025 50.7429 68.9159C50.4901 68.6178 50.157 68.3986 49.7832 68.2845C49.3957 68.1712 48.9838 68.1712 48.5962 68.2845C48.1676 68.411 47.746 68.5607 47.3335 68.7328C47.2832 68.7658 47.2226 68.7793 47.163 68.7706C47.1115 68.7577 47.0624 68.7363 47.0178 68.7075C46.9744 68.6822 46.9276 68.663 46.8789 68.6507C46.8785 67.9201 46.959 67.1917 47.1188 66.4788L47.586 64.4836C47.6429 64.2311 47.7376 63.7197 47.8828 62.9431C48.028 62.1665 48.2111 61.251 48.4194 60.1903C48.6278 59.1296 48.874 57.9805 49.1329 56.7556C49.3918 55.5308 49.6696 54.3185 49.9474 53.1379C50.2252 51.9572 50.503 50.8523 50.7618 49.8295C51.0207 48.8066 51.248 47.9669 51.4311 47.304C52.2961 44.1471 53.2053 41.0976 54.1523 38.1049C55.0994 35.1122 56.1348 32.1321 57.2397 29.1773C57.6606 28.0029 58.1089 26.8286 58.5845 25.6542C59.0391 24.4862 59.5127 23.3244 60.0114 22.188C60.4345 21.222 60.8827 20.256 61.3436 19.2963C61.8045 18.3366 62.2781 17.4022 62.7642 16.4362C62.9851 16.0009 63.2318 15.5793 63.5029 15.1734C63.6164 14.9778 63.7988 14.8315 64.0143 14.763C64.0646 14.7561 64.1156 14.7561 64.1659 14.763C64.2183 14.7564 64.2713 14.7564 64.3237 14.763C64.5355 14.78 64.7487 14.763 64.9551 14.7125L65.1761 14.6683C65.2584 14.6485 65.3388 14.6211 65.416 14.5862C65.8958 14.4095 66.382 14.2201 66.8681 14.0243C67.3543 13.8286 67.8657 13.6013 68.3456 13.4435C68.535 13.3866 68.7433 13.3424 68.939 13.2983C69.1348 13.2541 69.3179 13.2225 69.5136 13.1909C70.3105 13.2533 71.1018 13.3736 71.8812 13.5508C72.6886 13.7357 73.3991 14.2124 73.8764 14.8893C74.6909 15.9626 74.8929 17.8757 74.5078 20.5717C73.8871 24.1182 72.925 27.5964 71.635 30.9577C71.1489 32.3278 70.6438 33.7042 70.1324 35.0617C69.6209 36.4191 69.0969 37.7766 68.5665 39.1403C68.0294 40.5664 67.3792 41.9471 66.6219 43.2695C66.0028 44.3305 65.3262 45.357 64.5952 46.3443C63.8866 47.3411 63.0645 48.2522 62.1455 49.0592C61.538 49.6162 60.7679 49.9636 59.9483 50.0505C59.2028 50.0972 58.462 50.2006 57.7322 50.3598L55.3898 50.8523ZM58.111 39.9296C58.1478 39.9613 58.1908 39.9849 58.2373 39.999L58.4141 40.0306C58.6011 40.0456 58.789 40.0456 58.976 40.0306C59.1481 40.0128 59.3216 40.0128 59.4937 40.0306H59.5947C59.6606 40.0599 59.7312 40.077 59.8031 40.0811H60.0241C60.1416 40.0938 60.2601 40.0938 60.3776 40.0811C60.5071 40.0674 60.6343 40.0377 60.7565 39.9927C60.8385 39.9611 61.0027 39.8664 61.2426 39.7401C61.4826 39.6139 61.7351 39.475 62.0129 39.3108C62.2907 39.1466 62.5496 38.9888 62.8021 38.8246C62.9848 38.7138 63.1543 38.5825 63.3072 38.4332C63.6807 37.983 64.0144 37.5014 64.3048 36.9937C64.6511 36.3986 64.9652 35.7853 65.2455 35.1564C65.5423 34.525 65.8138 33.8115 66.06 33.0981C66.3079 32.4091 66.5186 31.7072 66.6914 30.9956C66.8492 30.3137 66.9944 29.6445 67.1207 29.0068C67.247 28.3691 67.3606 27.7062 67.4806 27.0685C67.6131 26.4891 67.6662 25.8944 67.6384 25.3006C67.6468 24.9592 67.5249 24.6274 67.2975 24.3725C67.0867 24.1887 66.8452 24.0434 66.584 23.9432C66.3253 23.8412 66.0467 23.8002 65.7696 23.8232C65.4109 23.8503 65.0622 23.9536 64.7467 24.1263C64.2886 24.3765 63.8642 24.6841 63.484 25.0418C62.7727 26.8265 62.0739 28.6364 61.3878 30.4716C60.706 32.3026 60.043 34.1399 59.418 35.9898C59.3674 36.135 59.2791 36.3875 59.1465 36.7474C59.0139 37.1073 58.875 37.4925 58.7361 37.9155C58.5972 38.3385 58.4583 38.7363 58.3446 39.1214C58.2449 39.384 58.1668 39.6543 58.111 39.9296Z" fill="white"/>
<path d="M71.8879 53.788L70.6252 58.1319C70.2085 59.5399 69.8233 60.9604 69.4698 62.381C69.1162 63.8016 68.7563 65.3422 68.4469 66.8006C68.1376 68.2591 67.8156 69.7744 67.5504 71.2771C67.45 71.852 67.3108 72.4194 67.1337 72.9755C67.0137 73.3164 66.8748 73.4679 66.7233 73.4364C66.6271 73.3967 66.5455 73.3284 66.4897 73.2406C66.2688 72.9396 65.9565 72.7181 65.5994 72.6093C65.2172 72.5166 64.8156 72.5453 64.4503 72.6913C64.0463 72.8429 63.6359 73.0197 63.1876 73.228C63.1401 73.2623 63.0817 73.278 63.0234 73.2722C62.9747 73.2599 62.9279 73.2407 62.8845 73.2154C62.8444 73.1868 62.7995 73.1654 62.752 73.1523C62.789 72.3514 62.9054 71.5562 63.0992 70.7783C63.2886 70.0333 63.4717 69.3009 63.6548 68.5874C63.7243 68.3096 63.8442 67.7477 64.021 66.8953C64.1978 66.043 64.4188 65.0391 64.6524 63.8711C64.886 62.703 65.1891 61.4466 65.4984 60.0828C65.8078 58.7191 66.1298 57.3932 66.4392 56.0863C66.7485 54.7793 67.0705 53.5607 67.3547 52.4243C67.6388 51.2878 67.8976 50.3534 68.0997 49.621C69.0467 46.1442 70.0212 42.7222 71.0229 39.3549C72.0247 35.9876 73.0875 32.6202 74.2114 29.2529C74.6575 27.9228 75.11 26.5864 75.5688 25.2437C76.0297 23.9115 76.5096 22.5856 77.0084 21.285C77.4251 20.1864 77.8733 19.0878 78.3342 17.9955C78.7951 16.9033 79.2624 15.811 79.7485 14.7377C79.957 14.2434 80.204 13.7663 80.4872 13.3108C80.5358 13.2093 80.6094 13.1219 80.701 13.0567C80.7927 12.9916 80.8995 12.9508 81.0113 12.9382C81.0656 12.9295 81.121 12.9295 81.1754 12.9382L81.3459 12.9951C81.5465 13.0782 81.7603 13.1252 81.9773 13.134H82.2109C82.2944 13.149 82.3799 13.149 82.4634 13.134C82.9622 13.0582 83.461 12.9635 83.9661 12.8625C84.4712 12.7615 84.9952 12.6289 85.475 12.5784C85.6851 12.5608 85.8963 12.5608 86.1064 12.5784C86.3021 12.5784 86.4979 12.5784 86.6936 12.5784C87.5016 12.893 88.2883 13.26 89.0486 13.677C89.8746 14.1716 90.5341 14.9014 90.9428 15.7731C91.6941 17.2253 91.814 19.4603 91.3531 22.4088C90.6488 26.1353 89.5917 29.7863 88.1963 33.3126C87.6701 34.7353 87.1356 36.1412 86.5926 37.5302C86.0496 38.9192 85.5087 40.344 84.97 41.8046C84.3998 43.2607 83.7223 44.6726 82.9432 46.0285C82.255 47.2028 81.5605 48.2572 80.8913 49.1854C80.1825 50.2088 79.3631 51.151 78.4479 51.9949C77.8739 52.5665 77.1246 52.9289 76.3201 53.0241C75.6043 53.0679 74.8929 53.1671 74.1924 53.3208L71.8879 53.788ZM74.9501 41.9056C74.9857 41.9434 75.0286 41.9735 75.0763 41.994C75.131 42.0161 75.1883 42.031 75.2468 42.0382C75.4315 42.0582 75.6178 42.0582 75.8024 42.0382C75.9684 42.0242 76.1352 42.0242 76.3012 42.0382H76.4022C76.4647 42.0749 76.5331 42.1005 76.6043 42.114L76.8189 42.1519C76.9344 42.1643 77.0508 42.1643 77.1662 42.1519C77.2927 42.1441 77.4179 42.1207 77.5387 42.0824C77.6145 42.0508 77.7786 41.9624 78.0122 41.8425C78.2458 41.7225 78.4984 41.5899 78.7762 41.4384C79.054 41.2869 79.3065 41.1227 79.5465 40.9712C79.728 40.8586 79.8973 40.7274 80.0516 40.5797C80.4298 40.1147 80.7677 39.6184 81.0618 39.096C81.3964 38.5088 81.7247 37.8711 82.0341 37.2019C82.3566 36.4928 82.6432 35.7679 82.8928 35.03C83.1419 34.2921 83.3526 33.5419 83.5241 32.7823C83.7009 32.0436 83.8587 31.3238 84.0039 30.623C84.1492 29.9222 84.2818 29.2087 84.4143 28.5016C84.5612 27.8512 84.6312 27.1858 84.6227 26.5191C84.6369 26.1216 84.529 25.7294 84.3133 25.3952C84.117 25.1536 83.8874 24.941 83.6314 24.7638C83.3884 24.6042 83.1119 24.5027 82.8233 24.4671C82.4765 24.4311 82.1263 24.4855 81.8068 24.6249C81.3445 24.8343 80.9183 25.1156 80.544 25.4584C79.8116 27.4325 79.0898 29.4255 78.3784 31.4375C77.6671 33.4494 76.9747 35.4656 76.3012 37.486C76.2507 37.6502 76.156 37.928 76.0171 38.3131C75.8782 38.6983 75.733 39.1276 75.5814 39.5759C75.4299 40.0241 75.2847 40.4787 75.1584 40.8954C75.063 41.2263 74.9933 41.564 74.9501 41.9056Z" fill="white"/>
<path d="M102.188 47.1967C101.809 48.3016 101.386 49.4949 100.881 50.7134C100.375 51.932 99.8262 53.1442 99.2264 54.3754C98.9928 54.8552 98.7718 55.3414 98.595 55.8212C98.4182 56.3011 98.1783 56.7935 97.9636 57.2797C96.983 59.6931 95.8809 62.0554 94.6615 64.3574C93.604 66.332 92.4471 68.2517 91.1953 70.1092C90.606 70.951 90.0546 71.7276 89.5411 72.439C89.0818 73.0707 88.5842 73.6738 88.0511 74.2447C87.6406 74.6926 87.181 75.0928 86.681 75.438C86.287 75.7122 85.8317 75.8856 85.3551 75.9431C84.8853 75.9981 84.4124 75.8691 84.0356 75.5832C83.5904 75.2315 83.221 74.7934 82.9496 74.2952C82.6781 73.8153 82.3877 73.3481 82.0972 72.8872C81.7685 72.2965 81.5362 71.6571 81.409 70.9931C81.1565 69.7971 81.0254 68.5787 81.0176 67.3564C81.0199 65.7307 81.1465 64.1076 81.3964 62.5012C81.6447 60.8175 81.9541 59.1212 82.3245 57.4123C82.697 55.7013 83.1516 53.9334 83.6883 52.1214C83.9093 51.3827 84.1239 50.644 84.3196 49.8989C84.5154 49.1539 84.7427 48.4152 84.951 47.6765C85.3425 46.3633 85.7718 45.069 86.2138 43.7999C86.6557 42.5308 87.1482 41.2744 87.647 40.0117C88.1458 38.7489 88.6382 37.5304 89.137 36.2992C89.6358 35.068 90.1346 33.8242 90.6208 32.5741C91.2257 30.9764 91.9474 29.4253 92.7801 27.9335C93.5461 26.5824 94.3437 25.2796 95.1729 24.0253C96.3851 22.0856 97.8336 20.3041 99.4852 18.7218C100.517 17.7129 101.785 16.9773 103.172 16.5814L103.45 16.5057C103.535 16.4835 103.624 16.4835 103.709 16.5057H103.779L104.782 17.4654C105.117 17.781 105.414 18.0967 105.767 18.4755C105.821 18.5402 105.854 18.6194 105.862 18.7028C105.862 18.8081 105.894 18.8712 105.957 18.8923C105.967 18.8972 105.977 18.8998 105.988 18.8998C105.999 18.8998 106.01 18.8972 106.02 18.8923C106.103 18.8415 106.197 18.809 106.293 18.7971C106.39 18.7851 106.489 18.7939 106.582 18.8228C106.661 18.8595 106.731 18.9121 106.789 18.9773C106.846 19.0424 106.89 19.1188 106.916 19.2016C107.004 19.4049 107.072 19.6164 107.119 19.833C107.163 20.0855 107.213 20.3381 107.257 20.597C107.296 20.8337 107.358 21.0663 107.441 21.2915C107.647 21.9142 107.768 22.562 107.8 23.2172C107.839 24.1193 107.782 25.023 107.63 25.9131C107.447 27.0875 107.283 28.2492 107.125 29.392C106.967 30.5348 106.765 31.7217 106.493 32.9529C106.073 34.9565 105.5 37.1053 104.776 39.3992C104.113 41.7227 103.166 44.3366 102.188 47.1967ZM90.5513 46.5148C89.8442 48.7183 89.1686 50.8586 88.6004 52.8917C88.0418 54.8596 87.6199 56.8637 87.3376 58.8897C87.1985 59.8366 87.1309 60.7927 87.1356 61.7498C87.1305 62.3014 87.2268 62.8493 87.4197 63.3661C87.4771 63.5247 87.5676 63.6692 87.6851 63.79C87.8027 63.9109 87.9447 64.0053 88.1016 64.0669C88.4227 64.1647 88.7572 64.2116 89.0929 64.2059C89.359 64.1766 89.6138 64.0817 89.8342 63.9296C90.0546 63.7775 90.2338 63.573 90.3556 63.3346C90.9229 62.4231 91.4007 61.4589 91.7825 60.4555C91.9656 60.0135 92.1487 59.5968 92.3255 59.1928C92.5023 58.7887 92.698 58.3783 92.8874 57.93C93.1589 57.2986 93.4241 56.7052 93.6955 56.1054C93.967 55.5055 94.2259 54.8868 94.4911 54.2491C95.1603 52.6517 95.7538 51.0544 96.3852 49.457C97.0166 47.8596 97.509 46.3001 98.0204 44.6901C98.5318 43.0801 99.018 41.5333 99.4663 39.9422C99.9146 38.3512 100.357 36.7854 100.773 35.2132C101.059 34.1567 101.27 33.2665 101.405 32.5425C101.527 31.9486 101.586 31.3433 101.581 30.7368C101.59 30.3553 101.503 29.9777 101.329 29.6382C101.172 29.3823 100.924 29.1952 100.634 29.1142L100.495 29.0763C100.443 29.073 100.39 29.073 100.338 29.0763C100.005 29.0358 99.669 29.021 99.3337 29.0321C98.9572 29.098 98.6094 29.2763 98.3361 29.5435C97.8861 29.9691 97.4954 30.4533 97.1744 30.983C96.6236 31.8649 96.1281 32.78 95.6907 33.7232C94.6973 35.7857 93.765 37.8902 92.8937 40.0369C92.0035 42.2151 91.2395 44.3997 90.5513 46.5148Z" fill="white"/>
<path d="M112.352 52.1266C112.011 53.4146 111.687 54.6332 111.38 55.7823C111.073 56.9314 110.755 58.0784 110.427 59.2233C110.143 60.1893 109.884 61.1174 109.663 61.9634C109.455 62.7361 109.292 63.5203 109.177 64.3121C109.142 64.5553 109.083 64.7944 109 65.0256C108.899 65.3097 108.785 65.6254 108.653 65.96C108.52 66.2946 108.381 66.6293 108.236 66.9765C108.091 67.3238 107.958 67.6584 107.838 67.9741L107.529 68.334C107.474 68.4067 107.41 68.4724 107.339 68.5297C107.323 68.4988 107.296 68.4748 107.264 68.4621C107.231 68.4493 107.195 68.4487 107.163 68.4602C107.069 68.4841 106.979 68.5224 106.897 68.5739C106.753 68.6561 106.614 68.7467 106.481 68.8454C106.35 68.9447 106.213 69.0354 106.07 69.1169C105.749 69.2997 105.411 69.4499 105.06 69.5652C104.744 69.6662 104.429 69.7609 104.107 69.843C103.917 69.8871 103.829 69.7609 103.842 69.4515C103.862 69.0539 103.928 68.6599 104.037 68.2771C104.486 66.4904 104.959 64.6468 105.439 62.759C105.919 60.8712 106.418 58.9202 106.91 56.9314C106.961 56.7104 107.017 56.4894 107.068 56.3C107.118 56.1106 107.182 55.8265 107.245 55.5171L106.361 55.7002C106.064 55.7696 105.767 55.8265 105.477 55.8833C104.526 58.333 103.608 60.7301 102.724 63.0746C101.84 65.4191 100.973 67.7636 100.123 70.1081L99.7502 71.1057C99.6745 71.31 99.5881 71.5102 99.4914 71.7055C99.4345 71.8269 99.3577 71.9378 99.2641 72.0338C99.1867 72.1031 99.0967 72.1567 98.9989 72.1917L98.759 72.2864C98.2981 72.4253 97.8372 72.5452 97.3826 72.6463C96.928 72.7473 96.4355 72.8293 95.9873 72.9493C95.7978 72.9998 95.7094 72.9051 95.7347 72.6336C95.7939 72.2182 95.8954 71.8098 96.0378 71.4151C96.7386 69.2621 97.4583 67.0965 98.1718 64.9246C100.066 59.2422 102.042 53.5283 104.081 47.8775C106.121 42.2267 108.261 36.5949 110.446 31.0262C110.963 29.7129 111.469 28.387 111.967 27.0864C112.466 25.7858 112.99 24.4725 113.514 23.1656C113.672 22.7552 113.805 22.4458 113.906 22.2374C113.982 22.0748 114.075 21.9204 114.183 21.7766C114.261 21.6778 114.361 21.5979 114.474 21.543L114.872 21.3599C115.011 21.2859 115.167 21.2499 115.324 21.2554C115.482 21.261 115.635 21.3079 115.768 21.3914C115.975 21.52 116.155 21.6872 116.299 21.8839C116.437 22.0788 116.613 22.2441 116.816 22.3701L116.854 22.4016C116.957 22.4625 117.042 22.5497 117.1 22.6542C117.156 22.7564 117.236 22.8432 117.334 22.9067H117.391H117.448C118.129 23.0251 118.776 23.2924 119.342 23.6896C119.955 24.1219 120.498 24.6457 120.952 25.2428C121.432 25.8742 121.892 26.5055 122.341 27.2127C122.722 27.8643 122.938 28.5989 122.972 29.353C123.048 30.2243 123.086 31.1335 123.086 32.0742C123.09 32.6473 123.031 33.219 122.909 33.7789C122.784 34.3912 122.626 34.9961 122.435 35.591C122.24 36.2224 122.019 36.8222 121.766 37.4535C121.514 38.0849 121.236 38.7163 120.971 39.3476C120.706 39.979 120.339 40.6609 120.03 41.3049C119.721 41.9489 119.342 42.5676 118.994 43.2306C118.553 44.0577 118.085 44.8343 117.618 45.573C117.151 46.3117 116.671 46.9999 116.185 47.6628C115.699 48.3258 115.206 48.9571 114.714 49.557C114.221 50.1568 113.71 50.7692 113.198 51.369C113.067 51.5137 112.926 51.6487 112.775 51.7731L112.352 52.1266ZM109.442 45.7435L109.776 45.9202C109.889 45.9712 110.008 46.0073 110.13 46.0276C110.573 46.0931 111.026 46.0408 111.443 45.876C111.952 45.7014 112.448 45.4904 112.927 45.2447C113.332 45.0041 113.674 44.6709 113.925 44.2724C114.297 43.7244 114.623 43.1456 114.897 42.5424C115.301 41.6837 115.673 40.8187 116.008 39.9538C116.343 39.0888 116.639 38.2175 116.886 37.3336C117.059 36.7425 117.186 36.1388 117.265 35.5279C117.328 34.9786 117.265 34.6313 117.05 34.4798C116.835 34.3282 116.658 34.1767 116.463 33.9999C116.277 33.8231 116.064 33.678 115.831 33.5706C115.603 33.4616 115.352 33.4075 115.099 33.4128C114.777 33.4244 114.463 33.5132 114.183 33.6716L111.816 39.6381C111.033 41.6122 110.242 43.6473 109.442 45.7435Z" fill="white"/>
<path d="M126.738 40.694C126.681 40.473 125.57 39.9427 125.008 39.5702C124.446 39.1976 123.278 38.661 123.215 38.4652C123.28 38.2769 123.358 38.0934 123.448 37.916L123.745 37.2088C123.846 36.9626 123.96 36.71 124.067 36.4575L124.351 35.8261C124.686 35.1064 125.021 34.3929 125.362 33.6984C125.702 33.0039 126.037 32.2967 126.378 31.577C126.472 31.3253 126.615 31.0954 126.801 30.9014C126.902 30.8256 127.028 30.8635 127.18 31.0087C127.567 31.396 127.946 31.7811 128.316 32.1641C128.687 32.5472 129.059 32.9323 129.434 33.3196L129.819 33.7173C129.939 33.8436 130.072 33.9699 130.204 34.0898L130.747 34.6707C131.025 34.9738 131.379 35.3652 131.776 35.8324C132.174 36.2996 132.603 36.7984 133.039 37.3225C133.475 37.8465 133.891 38.3705 134.302 38.9009C134.712 39.4313 135.059 39.8921 135.356 40.2962C135.653 40.7003 135.729 40.8013 135.988 41.1423C136.09 41.2782 136.179 41.4241 136.253 41.5779L136.486 42.0451C136.559 42.2158 136.572 42.4055 136.526 42.5848C136.479 42.7641 136.374 42.9229 136.227 43.0364C135.988 43.2763 135.754 43.5352 135.527 43.794C135.299 44.0529 135.053 44.3054 134.807 44.5454C134.561 44.7853 134.428 44.9305 134.207 45.1767C133.984 45.4033 133.746 45.6142 133.494 45.8081C133.178 45.5493 132.862 45.2651 132.553 44.9558C132.235 44.6431 131.899 44.348 131.549 44.0718C131.347 43.915 131.136 43.7695 130.918 43.6362C130.689 43.5058 130.445 43.404 130.192 43.3331C127.994 46.2943 125.936 48.9335 124.067 52.0904C122.198 55.2473 119.345 59.8058 117.116 62.8237L116.213 63.5058L115.948 63.7267L115.538 64.0865C115.152 64.3706 113.454 65.9869 113.088 66.2332C112.722 66.4794 112.343 66.7256 111.958 66.9719L111.901 67.0097L111.819 67.0666L111.762 67.1045C111.683 67.1568 111.601 67.2033 111.516 67.2434C111.459 67.2434 111.434 67.2434 111.434 67.2055C111.456 67.1124 111.493 67.0231 111.541 66.9403C111.61 66.8014 111.711 66.6183 111.844 66.3847C112.507 65.223 113.189 64.0549 113.864 62.8869L118.202 55.9227L120.576 51.7998C121.375 50.4277 122.171 49.0449 122.962 47.6517C123.423 46.8436 123.865 46.048 124.307 45.2588C124.749 44.4696 125.185 43.6614 125.627 42.847L125.936 42.2724C126.018 42.1083 126.107 41.9441 126.182 41.7863L126.441 41.2875C126.56 41.1001 126.659 40.9012 126.738 40.694Z" fill="white"/>
</svg>
